<?xml version="1.0" encoding="UTF-8"?>
<svg version="1.1" xmlns="http://www.w3.org/2000/svg" width="1231" height="905">
<path d="M0 0 C406.23 0 812.46 0 1231 0 C1231 298.65 1231 597.3 1231 905 C824.77 905 418.54 905 0 905 C0 606.35 0 307.7 0 0 Z " fill="#130F25" transform="translate(0,0)"/>
<path d="M0 0 C0.71638055 -0.00235223 1.4327611 -0.00470446 2.17085016 -0.00712797 C4.59581938 -0.01383885 7.02073529 -0.01335912 9.44571304 -0.01294994 C11.19207919 -0.01624727 12.93844457 -0.01997256 14.68480897 -0.02409142 C19.50297503 -0.03413446 24.32112863 -0.03783191 29.13930368 -0.04048073 C34.32825789 -0.04437696 39.51720217 -0.05395574 44.70615005 -0.0626936 C57.24679445 -0.08247708 69.78743969 -0.09252649 82.32809579 -0.10142139 C88.22879551 -0.10580111 94.12949433 -0.11116872 100.03019333 -0.11641026 C119.63695845 -0.13342424 139.24372301 -0.14791949 158.85049438 -0.155159 C163.94117356 -0.157069 169.03185273 -0.15898931 174.12253189 -0.16094494 C175.38784769 -0.16142868 176.65316349 -0.16191242 177.95682219 -0.16241082 C198.46449146 -0.17071513 218.97210249 -0.19605806 239.47974631 -0.22852562 C260.51841066 -0.26156325 281.55704536 -0.27960476 302.59573579 -0.28280324 C314.41471991 -0.28497137 326.23361908 -0.29376425 338.05257797 -0.31926441 C348.11604985 -0.34092641 358.17941614 -0.34904405 368.24290869 -0.33929763 C373.37982437 -0.33473988 378.516522 -0.33672456 383.65340805 -0.35605907 C388.35384141 -0.37359847 393.05389618 -0.37276845 397.75433305 -0.35716178 C399.45693052 -0.35477162 401.15955358 -0.35918167 402.86211178 -0.37099043 C405.17334883 -0.38603099 407.48323076 -0.3764927 409.79443359 -0.36076355 C411.72140693 -0.36222876 411.72140693 -0.36222876 413.68730903 -0.36372358 C418.92612219 0.38987202 421.97544886 2.83391138 425.46139908 6.69672108 C427.80106333 10.0762361 428.27396961 12.61418595 428.27654958 16.62169671 C428.27956555 17.54833227 428.28258152 18.47496784 428.28568888 19.42968327 C428.28303467 20.96225149 428.28303467 20.96225149 428.28032684 22.52578068 C428.28237948 23.61276931 428.28443211 24.69975795 428.28654695 25.81968564 C428.2922474 29.49935068 428.29075596 33.17897864 428.28934097 36.85864735 C428.29192286 39.50849573 428.2948965 42.15834107 428.29834437 44.8081882 C428.30593558 51.35103648 428.308118 57.89387661 428.30867343 64.43672883 C428.30958596 72.27049027 428.3162502 80.10424412 428.32302025 87.9380023 C428.3390938 106.87362864 428.34498498 125.80925418 428.349769 144.74488612 C428.35210349 153.69925323 428.35570597 162.6536197 428.35946438 171.60798631 C428.3723008 202.24808958 428.38302014 232.88819248 428.38646698 263.52829838 C428.38668861 265.4523466 428.3869104 267.37639482 428.38713233 269.30044304 C428.38735297 271.22918954 428.38757346 273.15793605 428.38779378 275.08668256 C428.38823634 278.95620712 428.38868345 282.82573168 428.38913345 286.69525623 C428.38929754 288.13438605 428.38929754 288.13438605 428.38946494 289.6025892 C428.39309655 320.7202858 428.40902006 351.83795911 428.43232382 382.95564679 C428.45690586 415.84023996 428.47063905 448.72481982 428.4718349 481.60942245 C428.47200636 485.21757015 428.47222179 488.82571785 428.47246933 492.43386555 C428.4725251 493.32231984 428.47258087 494.21077414 428.47263833 495.1261513 C428.47379017 509.43939565 428.48482342 523.75261616 428.49935639 538.06585245 C428.51370481 552.44571905 428.51696774 566.825555 428.50891641 581.20542678 C428.50445239 589.75343604 428.50835154 598.30134654 428.52415491 606.84934287 C428.53388085 612.55603256 428.53274958 618.2626528 428.52271869 623.96934179 C428.51730933 627.22301444 428.5183183 630.47645825 428.52922741 633.73012272 C428.54023341 637.23335463 428.532893 640.73607966 428.52083588 644.23929691 C428.53222867 645.75781813 428.53222867 645.75781813 428.54385161 647.30701655 C428.49313081 654.09565689 427.58760168 658.91164979 423.39889908 664.44672108 C418.47988359 668.13598269 412.7414892 668.38437088 406.77905655 668.38590336 C406.06733661 668.38881024 405.35561668 668.39171712 404.62232947 668.39471209 C402.24324089 668.40199682 399.86441146 668.39507594 397.48532486 668.38818836 C395.76010443 668.3904934 394.03488498 668.39367021 392.30966759 668.39764285 C387.57311275 668.4059936 382.83663848 668.40186428 378.10008335 668.39567041 C372.99027141 668.3911481 367.88047339 668.3981286 362.77066422 668.40363026 C352.76220458 668.41252824 342.75377493 668.41060043 332.74531412 668.40480497 C324.61195663 668.40029009 316.47860756 668.39967483 308.34524918 668.40185261 C306.60955191 668.40231231 306.60955191 668.40231231 304.83879006 668.40278129 C302.48817491 668.40342074 300.13755977 668.40406916 297.78694463 668.40472648 C275.73993157 668.41043096 253.69293514 668.40387002 231.64592481 668.39312574 C212.72438186 668.38419013 193.80286346 668.38574214 174.88132095 668.39496326 C152.91374368 668.4056638 130.94618097 668.40988162 108.97860146 668.40373874 C106.63658397 668.40310163 104.29456647 668.40247289 101.95254898 668.40185261 C100.80020079 668.40154406 99.64785259 668.40123551 98.46058476 668.4009176 C90.33603575 668.39919002 82.21149598 668.40210715 74.08694839 668.40681171 C64.18723501 668.41241814 54.28755335 668.41090911 44.38784361 668.40025023 C39.33589526 668.39499032 34.28399982 668.39294224 29.23205185 668.39954853 C24.60833774 668.40550344 19.98472564 668.40224039 15.3610208 668.39159343 C13.68749713 668.38935746 12.01396486 668.39050008 10.34044671 668.395345 C8.06642236 668.40142392 5.79274772 668.39519109 3.51874161 668.38590336 C1.62374326 668.3854163 1.62374326 668.3854163 -0.30953789 668.3849194 C-4.87485684 668.06175197 -9.21368408 667.48786249 -12.81203842 664.51312733 C-13.27867905 663.91371326 -13.74531967 663.3142992 -14.22610092 662.69672108 C-14.7082103 662.09988514 -15.19031967 661.5030492 -15.68703842 660.88812733 C-17.71845292 657.82737193 -17.97662053 655.19884414 -17.97990209 651.63277072 C-17.98317428 650.70301209 -17.98644648 649.77325347 -17.98981783 648.81532034 C-17.9883342 647.79011366 -17.98685058 646.76490698 -17.985322 645.70863342 C-17.98767423 644.61796844 -17.99002646 643.52730346 -17.99244997 642.40358803 C-17.99916119 638.71142819 -17.99868111 635.01930338 -17.99827194 631.32713795 C-18.00156924 628.66832717 -18.00525658 626.00951952 -18.00941342 623.35071021 C-18.01875134 616.78572809 -18.02266347 610.2207527 -18.02493239 603.65576476 C-18.02789132 595.79555759 -18.03658683 587.9353594 -18.04534667 580.07515693 C-18.06620355 561.07603563 -18.07666236 542.07691275 -18.08547628 523.07778267 C-18.08968054 514.09384803 -18.09490279 505.10991405 -18.1001608 496.12597998 C-18.11805102 465.38599777 -18.13304851 434.64601538 -18.140481 403.90602875 C-18.14095576 401.97573125 -18.14143164 400.04543375 -18.14190866 398.11513625 C-18.14214503 397.15786374 -18.14238141 396.20059123 -18.14262495 395.21431046 C-18.14382617 390.36412766 -18.14504161 385.51394488 -18.14626694 380.66376209 C-18.14650709 379.70122177 -18.14674724 378.73868144 -18.14699466 377.74697323 C-18.15489106 346.5252758 -18.17832989 315.30361631 -18.21082288 284.08193545 C-18.24509676 251.08895464 -18.26482981 218.09599604 -18.26812524 185.10299712 C-18.26854279 181.48335253 -18.26902236 177.86370795 -18.26954842 174.24406338 C-18.26967161 173.35277536 -18.2697948 172.46148734 -18.26992172 171.54319059 C-18.27225667 157.18138816 -18.28793286 142.81962971 -18.30839026 128.45784298 C-18.32861492 114.03093964 -18.3341415 99.6040893 -18.32461963 85.17717441 C-18.31939173 76.60004182 -18.32534271 68.02308526 -18.3471543 59.4459779 C-18.36061576 53.72115484 -18.35962685 47.99645359 -18.34675234 42.27162944 C-18.33982447 39.00672716 -18.34148269 35.74223186 -18.35631243 32.47734591 C-18.37128978 28.9637006 -18.36185629 25.45095397 -18.34608555 21.93733215 C-18.35630776 20.91914897 -18.36652996 19.90096578 -18.37706193 18.85192856 C-18.32027585 13.09513586 -17.7660564 9.66622896 -13.85110092 5.13422108 C-8.93817398 0.80616639 -6.52060393 0.00908299 0 0 Z " fill="#121216" transform="translate(424.85110092163086,132.86577892303467)"/>
<path d="M0 0 C1.56180797 -0.00389554 3.12361239 -0.00953802 4.68540847 -0.0167709 C8.96567171 -0.03150692 13.24556635 -0.02135545 17.52581763 -0.00703418 C22.1461668 0.00408209 26.76646454 -0.00786908 31.3868103 -0.01687622 C40.43296617 -0.03080555 49.47898239 -0.02325507 58.5251316 -0.00820064 C69.05845497 0.00866149 79.59174358 0.005449 90.12507628 0.00170528 C108.91706109 -0.00417259 127.70897889 0.00999621 146.50094604 0.03465271 C164.73925284 0.0585801 182.97747012 0.06565421 201.21578979 0.05516052 C221.07533099 0.04375452 240.93483079 0.0418168 260.79437149 0.05625862 C262.91139531 0.05778447 265.02841913 0.05930482 267.14544296 0.06081963 C268.18707247 0.06157744 269.22870198 0.06233525 270.30189601 0.06311603 C277.64596351 0.06786078 284.99001253 0.06600612 292.33407974 0.06175423 C301.2811796 0.05683067 310.22819477 0.06279828 319.17527522 0.08264852 C323.7410656 0.09252839 328.30672697 0.0976181 332.87252426 0.08975601 C337.05087224 0.0827082 341.22895969 0.08948265 345.40727328 0.10735964 C346.91991194 0.11140993 348.43257427 0.11039453 349.94520415 0.10384078 C352.00001154 0.09569889 354.05393923 0.1059914 356.10869026 0.12088871 C357.82117932 0.1224324 357.82117932 0.1224324 359.56826413 0.12400728 C364.17723042 0.67421003 367.57691196 2.12995389 370.57873535 5.70593262 C372.03694873 9.25264876 372.14838571 12.45330603 372.11618042 16.22557068 C372.12406586 17.36800735 372.12406586 17.36800735 372.1321106 18.53352356 C372.14527673 21.04249289 372.13658391 23.55082379 372.12643433 26.05979919 C372.12845625 27.80947999 372.13136868 29.55915997 372.13513184 31.30883789 C372.13955077 34.97305843 372.13313882 38.6370593 372.11911011 42.30125427 C372.10203108 46.9898528 372.11185389 51.67793561 372.1298275 56.36651516 C372.14068781 59.9791347 372.13720848 63.59163278 372.12944412 67.20425606 C372.12744767 68.9325625 372.12988186 70.66088009 372.13688278 72.38917351 C372.14453296 74.80889299 372.13284328 77.22778737 372.11618042 79.64744568 C372.12225311 80.35672714 372.12832581 81.06600861 372.13458252 81.79678345 C372.07575908 86.42604835 371.35844706 89.66847745 368.72799683 93.50120544 C364.39255938 96.14032167 361.15030482 96.8769775 356.10869026 96.88152218 C355.46595872 96.8861821 354.82322717 96.89084202 354.16101891 96.89564314 C352.01045686 96.90758017 349.8605281 96.89820324 347.70996094 96.8888855 C346.1513057 96.893059 344.59265351 96.89853661 343.03400695 96.90520531 C338.75315254 96.91967661 334.47249037 96.91540994 330.19162536 96.9080385 C325.57392929 96.90331327 320.9562752 96.91581099 316.33859253 96.92605591 C307.29285791 96.94326217 298.24719269 96.9440801 289.20144595 96.938843 C281.84943778 96.93480331 274.49745015 96.93624247 267.14544296 96.94159126 C266.09947914 96.94233968 265.05351531 96.94308811 263.97585561 96.94385921 C261.85104466 96.94539067 259.72623371 96.94692902 257.60142277 96.94847418 C237.66987427 96.96220594 217.73836501 96.95675687 197.8068174 96.94528896 C179.5704932 96.93535684 161.33427046 96.94829572 143.09796192 96.97222316 C124.37567731 96.99660326 105.65343999 97.00622464 86.93113983 96.99957043 C76.41889806 96.99607566 65.90673433 96.9983272 55.39450455 97.01582146 C46.44520702 97.03052984 37.49604247 97.03119676 28.54674758 97.01375055 C23.98068068 97.00522676 19.41485147 97.00312456 14.84879684 97.0184021 C10.66773954 97.03221828 6.48712426 97.02752577 2.30609272 97.00816286 C0.79470093 97.00439307 -0.71672601 97.00735303 -2.22808658 97.01777451 C-10.10210372 97.06820245 -16.56625828 97.06160857 -23.27200317 92.50120544 C-25.74270555 88.79515188 -25.55389527 85.96805764 -25.53079224 81.68089294 C-25.53429687 80.88548096 -25.53780151 80.09006897 -25.54141235 79.27055359 C-25.55022111 76.63901566 -25.54438357 74.00774615 -25.53762817 71.37620544 C-25.53897507 69.54921924 -25.54091581 67.72223339 -25.54342651 65.89524841 C-25.54637662 62.06529835 -25.54208378 58.23544155 -25.53274536 54.40550232 C-25.5213509 49.49245277 -25.52791097 44.57962173 -25.53989029 39.6665802 C-25.54711195 35.89368539 -25.54481955 32.12084252 -25.5396347 28.34794617 C-25.53829906 26.53621902 -25.53994296 24.72448718 -25.54459381 22.9127655 C-25.54966406 20.3822223 -25.54194186 17.85203462 -25.53079224 15.32151794 C-25.5348407 14.57025635 -25.53888916 13.81899475 -25.5430603 13.04496765 C-25.51255282 9.31379392 -25.39699648 7.6886954 -23.27200317 4.50120544 C-15.96134342 -0.47058459 -8.51586563 -0.0587206 0 0 Z " fill="#121313" transform="translate(456.2720031738281,679.4987945556641)"/>
<path d="M0 0 C0.96612012 -0.00307895 0.96612012 -0.00307895 1.95175782 -0.0062201 C4.13077387 -0.01191782 6.30972727 -0.01042946 8.4887495 -0.00901413 C10.05846184 -0.01159618 11.62817351 -0.01460889 13.19788426 -0.01801753 C17.5277154 -0.02610961 21.85752999 -0.02787833 26.1873678 -0.028615 C30.85073473 -0.03046173 35.514093 -0.03800712 40.17745495 -0.04475021 C50.38189107 -0.05834968 60.58632328 -0.06436075 70.79076695 -0.06876087 C77.15853188 -0.07152055 83.52629528 -0.07575739 89.89405918 -0.08026505 C107.51322141 -0.09245977 125.13238241 -0.10275871 142.75154877 -0.10614014 C143.8798806 -0.1063597 145.00821244 -0.10657927 146.17073615 -0.10680549 C147.30181783 -0.10702377 148.43289952 -0.10724204 149.59825641 -0.10746694 C151.89038265 -0.10791041 154.18250889 -0.10835697 156.47463512 -0.10880661 C157.6116168 -0.10902804 158.74859847 -0.10924947 159.92003413 -0.10947761 C178.34938108 -0.11342687 196.77868851 -0.13088389 215.20802019 -0.15416613 C234.1143467 -0.17785882 253.02065337 -0.19034104 271.92699498 -0.19150805 C282.54818064 -0.19242598 293.16931482 -0.1982079 303.79048634 -0.21632767 C312.83363071 -0.23170058 321.87670771 -0.23686577 330.91986267 -0.22858956 C335.53612919 -0.22467308 340.15225991 -0.22566113 344.76850986 -0.23964691 C348.99205333 -0.25232621 353.21535812 -0.25124123 357.43890097 -0.2390562 C358.96920492 -0.23708879 360.49952543 -0.24022547 362.02980606 -0.24890056 C364.10609012 -0.25992841 366.18152222 -0.2525519 368.25778198 -0.24050903 C369.98938921 -0.24140467 369.98938921 -0.24140467 371.75597841 -0.24231839 C376.31789144 0.31456562 378.87589596 2.20508983 382.09914684 5.37556839 C384.27867236 8.87073589 384.31987233 11.12350611 384.31374645 15.22517776 C384.31520168 15.89432205 384.31665691 16.56346634 384.31815624 17.25288773 C384.31650318 18.66150155 384.30500822 20.07013456 384.28420544 21.47859573 C384.25523434 23.62537826 384.26360921 25.76968965 384.27663708 27.91658401 C384.22103503 40.16081505 384.22103503 40.16081505 379.3176527 45.88142776 C376.05758582 48.59815017 372.5571961 48.2611666 368.5178442 48.27123547 C367.87320947 48.27418689 367.22857474 48.27713831 366.56440562 48.28017917 C364.38951128 48.28888841 362.21467001 48.29045246 360.03975964 48.29205704 C358.47060909 48.29678676 356.90145977 48.3019375 355.33231187 48.30747467 C351.00860737 48.32139883 346.68491131 48.32896944 342.36119008 48.33544767 C338.65559635 48.34181373 334.9500165 48.35188447 331.24443141 48.36200833 C319.03558434 48.39534798 306.82672882 48.41685531 294.61785114 48.43520817 C291.43987624 48.44000213 288.26190169 48.44498557 285.08392715 48.4500134 C265.3577081 48.48098062 245.63148614 48.5076715 225.9052496 48.52443218 C221.33519771 48.52838181 216.76514588 48.53238479 212.19509411 48.53645706 C210.49125678 48.5379696 210.49125678 48.5379696 208.7529985 48.5395127 C190.34441748 48.55652656 171.93597073 48.59764348 153.5274553 48.64848005 C134.63690961 48.70021965 115.74643304 48.72936951 96.85581708 48.73662907 C86.24568602 48.74129564 75.63577492 48.75609228 65.02571392 48.79637337 C55.99138725 48.83063023 46.95732021 48.84463027 37.9229323 48.83194923 C33.312327 48.82611236 28.70227112 48.83005827 24.09174824 48.86011887 C19.87099675 48.88741398 15.65118675 48.88703429 11.43041494 48.86460841 C9.90345841 48.86137696 8.37643959 48.86830362 6.84958693 48.88640564 C-5.97474544 49.02923253 -5.97474544 49.02923253 -10.57521152 45.27341175 C-15.62438313 40.06934217 -14.51104257 32.81945429 -14.58737659 26.04500198 C-14.60891993 24.60953534 -14.64298096 23.17419879 -14.68991566 21.73933792 C-15.12528308 8.2878789 -15.12528308 8.2878789 -11.28000355 3.70955276 C-7.5756891 0.24130034 -5.04706266 0.00545199 0 0 Z " fill="#685AEF" transform="translate(445.18234729766846,598.8685722351074)"/>
<path d="M0 0 C0.96612012 -0.00307895 0.96612012 -0.00307895 1.95175782 -0.0062201 C4.13077387 -0.01191782 6.30972727 -0.01042946 8.4887495 -0.00901413 C10.05846184 -0.01159618 11.62817351 -0.01460889 13.19788426 -0.01801753 C17.5277154 -0.02610961 21.85752999 -0.02787833 26.1873678 -0.028615 C30.85073473 -0.03046173 35.514093 -0.03800712 40.17745495 -0.04475021 C50.38189107 -0.05834968 60.58632328 -0.06436075 70.79076695 -0.06876087 C77.15853188 -0.07152055 83.52629528 -0.07575739 89.89405918 -0.08026505 C107.51322141 -0.09245977 125.13238241 -0.10275871 142.75154877 -0.10614014 C143.8798806 -0.1063597 145.00821244 -0.10657927 146.17073615 -0.10680549 C147.30181783 -0.10702377 148.43289952 -0.10724204 149.59825641 -0.10746694 C151.89038265 -0.10791041 154.18250889 -0.10835697 156.47463512 -0.10880661 C157.6116168 -0.10902804 158.74859847 -0.10924947 159.92003413 -0.10947761 C178.34938108 -0.11342687 196.77868851 -0.13088389 215.20802019 -0.15416613 C234.1143467 -0.17785882 253.02065337 -0.19034104 271.92699498 -0.19150805 C282.54818064 -0.19242598 293.16931482 -0.1982079 303.79048634 -0.21632767 C312.83363071 -0.23170058 321.87670771 -0.23686577 330.91986267 -0.22858956 C335.53612919 -0.22467308 340.15225991 -0.22566113 344.76850986 -0.23964691 C348.99205333 -0.25232621 353.21535812 -0.25124123 357.43890097 -0.2390562 C358.96920492 -0.23708879 360.49952543 -0.24022547 362.02980606 -0.24890056 C364.10609012 -0.25992841 366.18152222 -0.2525519 368.25778198 -0.24050903 C369.98938921 -0.24140467 369.98938921 -0.24140467 371.75597841 -0.24231839 C375.98478234 0.27390217 378.57531461 1.93405274 381.60525036 4.85432816 C383.30406277 8.04498933 383.24733933 11.03752408 383.2160902 14.56502151 C383.21896038 15.27997284 383.22183056 15.99492416 383.22478771 16.73154068 C383.22682463 18.24025135 383.22132071 19.74898866 383.20876598 21.25764847 C383.19272904 23.55797779 383.20861334 25.85654405 383.22780895 28.15681839 C383.22582599 29.62622329 383.22198122 31.09562709 383.2160902 32.56502151 C383.2221629 33.24850159 383.22823559 33.93198166 383.2344923 34.63617325 C383.17110935 38.97540762 382.55707909 41.7376369 379.8176527 45.13142776 C375.88888376 48.01136878 373.09938048 48.50795099 368.26895523 48.51453781 C367.29809221 48.52197708 367.29809221 48.52197708 366.30761579 48.52956665 C364.13571824 48.54253474 361.96443427 48.53413468 359.79252148 48.52583694 C358.22092898 48.53072529 356.64934007 48.53691483 355.0777573 48.54429483 C350.75658422 48.56072462 346.43559322 48.55837028 342.11439979 48.55291986 C337.45513813 48.55025343 332.79592542 48.56477414 328.13668346 48.57701492 C319.00793429 48.598087 309.8792486 48.60260878 300.75047798 48.60082704 C293.3321618 48.59952038 285.91386546 48.60331862 278.49555302 48.61075211 C276.36026079 48.61285125 274.22496855 48.61494886 272.08967632 48.61704493 C271.02694879 48.61808845 269.96422126 48.61913198 268.86928987 48.62020713 C248.76278961 48.63911644 228.65632582 48.63805709 208.54982036 48.6312378 C190.14716684 48.62566099 171.74465248 48.64649248 153.34203149 48.67959827 C134.45480495 48.71331269 115.56764512 48.72850647 96.68038791 48.72388124 C86.07315829 48.72163439 75.4660573 48.72691141 64.85885334 48.75177383 C55.8293067 48.77275784 46.79995926 48.77640775 37.77040453 48.75747424 C33.16201165 48.74829873 28.55399046 48.74722873 23.94562626 48.7678299 C19.7281633 48.78647537 15.51137812 48.78210929 11.29394149 48.75928408 C9.76707545 48.75508199 8.24015809 48.75935219 6.71334619 48.77288002 C-6.12311862 48.87888109 -6.12311862 48.87888109 -10.06685448 45.78008652 C-14.53841382 40.18156372 -13.47857292 32.97805452 -13.53244495 26.13557816 C-13.54899044 24.5963617 -13.57626264 23.05722163 -13.6144762 21.51839066 C-13.66949384 19.28874112 -13.69115309 17.06088508 -13.7057848 14.83064651 C-13.72845417 14.14919067 -13.75112354 13.46773483 -13.77447987 12.76562881 C-13.74996313 7.16944628 -11.98858518 4.92153448 -8.1823473 1.13142776 C-5.39495466 -0.26226855 -3.12041826 0.00337077 0 0 Z " fill="#E7EFFC" transform="translate(445.18234729766846,525.8685722351074)"/>
<path d="M0 0 C0.96612012 -0.00307895 0.96612012 -0.00307895 1.95175782 -0.0062201 C4.13077387 -0.01191782 6.30972727 -0.01042946 8.4887495 -0.00901413 C10.05846184 -0.01159618 11.62817351 -0.01460889 13.19788426 -0.01801753 C17.5277154 -0.02610961 21.85752999 -0.02787833 26.1873678 -0.028615 C30.85073473 -0.03046173 35.514093 -0.03800712 40.17745495 -0.04475021 C50.38189107 -0.05834968 60.58632328 -0.06436075 70.79076695 -0.06876087 C77.15853188 -0.07152055 83.52629528 -0.07575739 89.89405918 -0.08026505 C107.51322141 -0.09245977 125.13238241 -0.10275871 142.75154877 -0.10614014 C143.8798806 -0.1063597 145.00821244 -0.10657927 146.17073615 -0.10680549 C147.30181783 -0.10702377 148.43289952 -0.10724204 149.59825641 -0.10746694 C151.89038265 -0.10791041 154.18250889 -0.10835697 156.47463512 -0.10880661 C157.6116168 -0.10902804 158.74859847 -0.10924947 159.92003413 -0.10947761 C178.34938108 -0.11342687 196.77868851 -0.13088389 215.20802019 -0.15416613 C234.1143467 -0.17785882 253.02065337 -0.19034104 271.92699498 -0.19150805 C282.54818064 -0.19242598 293.16931482 -0.1982079 303.79048634 -0.21632767 C312.83363071 -0.23170058 321.87670771 -0.23686577 330.91986267 -0.22858956 C335.53612919 -0.22467308 340.15225991 -0.22566113 344.76850986 -0.23964691 C348.99205333 -0.25232621 353.21535812 -0.25124123 357.43890097 -0.2390562 C358.96920492 -0.23708879 360.49952543 -0.24022547 362.02980606 -0.24890056 C364.10609012 -0.25992841 366.18152222 -0.2525519 368.25778198 -0.24050903 C369.98938921 -0.24140467 369.98938921 -0.24140467 371.75597841 -0.24231839 C375.98478234 0.27390217 378.57531461 1.93405274 381.60525036 4.85432816 C383.30406277 8.04498933 383.24733933 11.03752408 383.2160902 14.56502151 C383.21896038 15.27997284 383.22183056 15.99492416 383.22478771 16.73154068 C383.22682463 18.24025135 383.22132071 19.74898866 383.20876598 21.25764847 C383.19272904 23.55797779 383.20861334 25.85654405 383.22780895 28.15681839 C383.22582599 29.62622329 383.22198122 31.09562709 383.2160902 32.56502151 C383.2221629 33.24850159 383.22823559 33.93198166 383.2344923 34.63617325 C383.17110935 38.97540762 382.55707909 41.7376369 379.8176527 45.13142776 C375.88888376 48.01136878 373.09938048 48.50795099 368.26895523 48.51453781 C367.29809221 48.52197708 367.29809221 48.52197708 366.30761579 48.52956665 C364.13571824 48.54253474 361.96443427 48.53413468 359.79252148 48.52583694 C358.22092898 48.53072529 356.64934007 48.53691483 355.0777573 48.54429483 C350.75658422 48.56072462 346.43559322 48.55837028 342.11439979 48.55291986 C337.45513813 48.55025343 332.79592542 48.56477414 328.13668346 48.57701492 C319.00793429 48.598087 309.8792486 48.60260878 300.75047798 48.60082704 C293.3321618 48.59952038 285.91386546 48.60331862 278.49555302 48.61075211 C276.36026079 48.61285125 274.22496855 48.61494886 272.08967632 48.61704493 C271.02694879 48.61808845 269.96422126 48.61913198 268.86928987 48.62020713 C248.76278961 48.63911644 228.65632582 48.63805709 208.54982036 48.6312378 C190.14716684 48.62566099 171.74465248 48.64649248 153.34203149 48.67959827 C134.45480495 48.71331269 115.56764512 48.72850647 96.68038791 48.72388124 C86.07315829 48.72163439 75.4660573 48.72691141 64.85885334 48.75177383 C55.8293067 48.77275784 46.79995926 48.77640775 37.77040453 48.75747424 C33.16201165 48.74829873 28.55399046 48.74722873 23.94562626 48.7678299 C19.7281633 48.78647537 15.51137812 48.78210929 11.29394149 48.75928408 C9.76707545 48.75508199 8.24015809 48.75935219 6.71334619 48.77288002 C-6.12311862 48.87888109 -6.12311862 48.87888109 -10.06685448 45.78008652 C-14.53841382 40.18156372 -13.47857292 32.97805452 -13.53244495 26.13557816 C-13.54899044 24.5963617 -13.57626264 23.05722163 -13.6144762 21.51839066 C-13.66949384 19.28874112 -13.69115309 17.06088508 -13.7057848 14.83064651 C-13.72845417 14.14919067 -13.75112354 13.46773483 -13.77447987 12.76562881 C-13.74996313 7.16944628 -11.98858518 4.92153448 -8.1823473 1.13142776 C-5.39495466 -0.26226855 -3.12041826 0.00337077 0 0 Z " fill="#E6EEFC" transform="translate(445.18234729766846,423.8685722351074)"/>
<path d="M0 0 C0.96833046 -0.00698988 0.96833046 -0.00698988 1.95622316 -0.01412097 C4.12238459 -0.02608508 6.28792043 -0.01667059 8.45408726 -0.00736332 C10.0215544 -0.01153563 11.58901853 -0.01701259 13.15647703 -0.02368313 C17.46625467 -0.03816995 21.7758416 -0.03388295 26.08562982 -0.02651632 C30.73261694 -0.02179495 35.37956219 -0.03428534 40.02653599 -0.04453373 C49.13122664 -0.06174723 58.23584836 -0.06255647 67.34055107 -0.05732083 C74.73932037 -0.0532827 82.13806926 -0.05471843 89.53683758 -0.06006908 C91.1151788 -0.06119172 91.1151788 -0.06119172 92.72540571 -0.06233703 C94.86286366 -0.06386847 97.0003216 -0.06540682 99.13777954 -0.066952 C119.19134755 -0.08068623 139.24487656 -0.07523283 159.29844368 -0.06376678 C177.6525798 -0.05383302 196.00661513 -0.06677593 214.36073571 -0.09070098 C233.1982402 -0.1150715 252.0356977 -0.12470492 270.87321764 -0.11804825 C281.45247997 -0.11455153 292.03166475 -0.11681796 302.61091518 -0.13429928 C311.61665449 -0.14899566 320.62226165 -0.14969032 329.62799828 -0.13222837 C334.22418891 -0.12369489 338.82014323 -0.1216259 343.41632175 -0.13687992 C347.62260278 -0.1506673 351.82844373 -0.14604106 356.03469891 -0.12664068 C357.55752503 -0.122862 359.08038591 -0.12585617 360.60318124 -0.13625234 C362.67198578 -0.14937341 364.73926038 -0.13788549 366.80799866 -0.12025452 C367.95735978 -0.12014718 369.10672089 -0.12003984 370.29091114 -0.11992925 C375.09650356 0.63698879 378.25892929 2.93072801 381.3419199 6.63031673 C382.83443064 10.27867631 383.14588664 13.53283855 382.4669199 17.38031673 C380.18345062 21.86268236 377.95077623 24.18071932 373.4669199 26.38031673 C370.4162603 26.75751489 370.4162603 26.75751489 366.9338398 26.76063347 C366.28828616 26.76529339 365.64273251 26.76995331 364.97761664 26.77475443 C362.8114552 26.78671854 360.64591937 26.77730405 358.47975254 26.76799679 C356.91228539 26.7721691 355.34482127 26.77764605 353.77736276 26.7843166 C349.46758513 26.79880342 345.1579982 26.79451642 340.84820998 26.78714979 C336.20122285 26.78242842 331.55427761 26.79491881 326.90730381 26.8051672 C317.80261315 26.8223807 308.69799143 26.82318994 299.59328873 26.81795429 C292.19451943 26.81391617 284.79577054 26.8153519 277.39700222 26.82070255 C276.34477474 26.82145097 275.29254725 26.8221994 274.20843409 26.8229705 C272.07097614 26.82450194 269.93351819 26.82604029 267.79606026 26.82758547 C247.74249225 26.84131969 227.68896324 26.8358663 207.63539612 26.82440025 C189.28126 26.81446649 170.92722466 26.82740939 152.57310409 26.85133445 C133.7355996 26.87570497 114.8981421 26.88533838 96.06062216 26.87868172 C85.48135983 26.87518499 74.90217504 26.87745143 64.32292461 26.89493275 C55.31718531 26.90962912 46.31157815 26.91032379 37.30584151 26.89286184 C32.70965089 26.88432835 28.11369657 26.88225937 23.51751804 26.89751339 C19.31123702 26.91130077 15.10539607 26.90667453 10.89914089 26.88727415 C9.37631476 26.88349547 7.85345389 26.88648964 6.33065856 26.8968858 C4.26185402 26.91000688 2.19457942 26.89851896 0.12584114 26.88088799 C-1.02351998 26.88078065 -2.1728811 26.88067331 -3.35707134 26.88056272 C-7.27949765 26.26275019 -9.44392045 24.83299243 -12.5330801 22.38031673 C-15.4434521 18.01475874 -16.183705 14.58531595 -15.5330801 9.38031673 C-11.89842344 2.38023724 -7.77987706 0.00696703 0 0 Z " fill="#0FA578" transform="translate(446.5330801010132,336.61968326568604)"/>
<path d="M0 0 C9.80994976 6.30082624 15.63953543 15.32340306 18.8125 26.375 C20.10692564 39.78585174 17.39621016 50.91236711 8.8125 61.375 C-0.04262455 70.65267198 -9.89633594 74.3003137 -22.5625 74.75 C-34.35042463 74.51643972 -42.51501072 69.68270627 -50.90234375 61.75390625 C-58.22103743 53.98826945 -61.54839602 43.99859261 -61.39453125 33.5078125 C-60.56923903 21.01942835 -56.40592231 12.00707742 -47.25 3.5 C-33.37273567 -7.90780917 -15.57916163 -8.54953992 0 0 Z " fill="#716BF4" transform="translate(651.1875,162.625)"/>
<path d="M0 0 C4.17862962 0.87054784 5.56887157 2.12131491 8 5.625 C8.40276286 8.67376188 8.29949079 11.57019396 8 14.625 C8.78375 14.58375 9.5675 14.5425 10.375 14.5 C13 14.625 13 14.625 15 16.625 C15.22555081 19.15292663 15.32438591 21.53555576 15.3125 24.0625 C15.32861328 24.74376953 15.34472656 25.42503906 15.36132812 26.12695312 C15.3661994 31.10052989 15.3661994 31.10052989 13.81713867 33.3190918 C11.32820212 35.10779549 9.61072144 35.01281123 6.5625 35.0234375 C5.50289062 35.02730469 4.44328125 35.03117187 3.3515625 35.03515625 C2.24554687 35.02355469 1.13953125 35.01195312 0 35 C-1.10601563 35.01160156 -2.21203125 35.02320313 -3.3515625 35.03515625 C-4.41117188 35.03128906 -5.47078125 35.02742188 -6.5625 35.0234375 C-7.53316406 35.02005371 -8.50382813 35.01666992 -9.50390625 35.01318359 C-12 34.625 -12 34.625 -13.81713867 33.3190918 C-15.78272241 30.50398642 -15.39060323 27.36470466 -15.3125 24.0625 C-15.31572266 23.37736328 -15.31894531 22.69222656 -15.32226562 21.98632812 C-15.26727586 16.89227586 -15.26727586 16.89227586 -13 14.625 C-10.375 14.5 -10.375 14.5 -8 14.625 C-8.08701172 13.73748047 -8.08701172 13.73748047 -8.17578125 12.83203125 C-8.42728017 8.42720727 -8.45990867 6.28780955 -5.875 2.5625 C-3 0.625 -3 0.625 0 0 Z " fill="#F6F5FE" transform="translate(630,179.375)"/>
<path d="M0 0 C0.98484375 -0.00128906 1.9696875 -0.00257813 2.984375 -0.00390625 C4.02078125 -0.00003906 5.0571875 0.00382813 6.125 0.0078125 C7.67960938 0.00201172 7.67960938 0.00201172 9.265625 -0.00390625 C10.25046875 -0.00261719 11.2353125 -0.00132812 12.25 0 C13.16007813 0.00112793 14.07015625 0.00225586 15.0078125 0.00341797 C17.125 0.1328125 17.125 0.1328125 18.125 1.1328125 C18.125 5.0928125 18.125 9.0528125 18.125 13.1328125 C10.205 13.1328125 2.285 13.1328125 -5.875 13.1328125 C-5.875 0.00728134 -5.875 0.00728134 0 0 Z " fill="#7670F6" transform="translate(623.875,196.8671875)"/>
<path d="M0 0 C1.61648438 0.04060547 1.61648438 0.04060547 3.265625 0.08203125 C4.08546875 0.11683594 4.9053125 0.15164063 5.75 0.1875 C5.80407567 2.77111518 5.843707 5.35359255 5.875 7.9375 C5.89175781 8.66710937 5.90851562 9.39671875 5.92578125 10.1484375 C5.98886395 17.08753453 5.98886395 17.08753453 3.75 20.1875 C1.10541621 21.50979189 -0.92761301 21.28427194 -3.875 21.25 C-4.87789062 21.24097656 -5.88078125 21.23195313 -6.9140625 21.22265625 C-7.68492187 21.21105469 -8.45578125 21.19945312 -9.25 21.1875 C-9.25 19.8675 -9.25 18.5475 -9.25 17.1875 C-6.61 17.1875 -3.97 17.1875 -1.25 17.1875 C-1.25 16.5275 -1.25 15.8675 -1.25 15.1875 C-2.6421875 15.31125 -2.6421875 15.31125 -4.0625 15.4375 C-7.25 15.1875 -7.25 15.1875 -9.125 13.6875 C-10.83096205 9.89647321 -10.71175546 7.34329911 -10.25 3.1875 C-7.1093618 -0.14052711 -4.42903245 -0.14442497 0 0 Z " fill="#5D60BA" transform="translate(636.25,267.8125)"/>
<path d="M0 0 C1.32 0 2.64 0 4 0 C4.66 0.99 5.32 1.98 6 3 C6.391875 2.505 6.78375 2.01 7.1875 1.5 C9.57092548 -0.47249005 10.98084776 -0.23224248 14 0 C14.66 0 15.32 0 16 0 C20 0 24 0 28 0 C27.01 0.33 26.02 0.66 25 1 C25 1.99 25 2.98 25 4 C25.99 4.33 26.98 4.66 28 5 C27.01 5 26.02 5 25 5 C25 5.99 25 6.98 25 8 C25.99 8.33 26.98 8.66 28 9 C23.33333333 9 18.66666667 9 14 9 C13.071875 9.020625 12.14375 9.04125 11.1875 9.0625 C7.15806132 8.9834914 3.81184752 8.27061584 0 7 C0 7.66 0 8.32 0 9 C-0.66 9 -1.32 9 -2 9 C-1.34 6.03 -0.68 3.06 0 0 Z " fill="#B0E3D3" transform="translate(582,346)"/>
<path d="M0 0 C2.9375 1.5625 2.9375 1.5625 5 4 C5.625 7.5 5.625 7.5 5 11 C2.27151928 14.22456813 0.62057913 14.91290117 -3.5625 15.5 C-7 15 -7 15 -9.4375 13.5 C-11.79893062 9.72171101 -11.56153595 7.42209561 -11 3 C-8.05808253 -0.76565437 -4.50977549 -0.55383208 0 0 Z " fill="#5E66C4" transform="translate(586,268)"/>
<path d="M0 0 C2.9375 1.625 2.9375 1.625 5 4 C5.625 6.9375 5.625 6.9375 5 10 C2.9375 12.875 2.9375 12.875 0 15 C-3.99048721 15.63007693 -6.01685857 15.63021887 -9.4375 13.4375 C-11.60396028 10.05782196 -11.56288002 7.94016013 -11 4 C-8.10445004 -0.51705794 -5.12679803 -0.7195506 0 0 Z " fill="#625DB8" transform="translate(686,268)"/>
<path d="M0 0 C1.33804688 0.04060547 1.33804688 0.04060547 2.703125 0.08203125 C3.37859375 0.11683594 4.0540625 0.15164063 4.75 0.1875 C4.75 1.8375 4.75 3.4875 4.75 5.1875 C2.11 5.1875 -0.53 5.1875 -3.25 5.1875 C-3.58 5.8475 -3.91 6.5075 -4.25 7.1875 C-3.3425 7.455625 -2.435 7.72375 -1.5 8 C3.58783784 9.85901767 3.58783784 9.85901767 5.75 12.1875 C6.3125 15.1875 6.3125 15.1875 5.75 18.1875 C2.86376834 20.81134697 1.01812801 21.16900841 -2.875 21.4375 C-6.25 21.1875 -6.25 21.1875 -9.25 20.1875 C-9.25 18.8675 -9.25 17.5475 -9.25 16.1875 C-6.28 16.1875 -3.31 16.1875 -0.25 16.1875 C0.08 15.5275 0.41 14.8675 0.75 14.1875 C-0.61125 13.81625 -0.61125 13.81625 -2 13.4375 C-5.43241801 12.11733923 -7.06828523 11.12442372 -9.25 8.1875 C-9.75 5.625 -9.75 5.625 -9.25 3.1875 C-6.22352759 0.2720908 -4.13720245 -0.16331062 0 0 Z " fill="#5D63C0" transform="translate(602.25,261.8125)"/>
<path d="M0 0 C3.63 0 7.26 0 11 0 C11.33 1.65 11.66 3.3 12 5 C13.32 5.33 14.64 5.66 16 6 C16 6.66 16 7.32 16 8 C14.68 8 13.36 8 12 8 C11.67 10.31 11.34 12.62 11 15 C9.35425434 15.02688151 7.70838587 15.04634123 6.0625 15.0625 C5.14597656 15.07410156 4.22945313 15.08570313 3.28515625 15.09765625 C1 15 1 15 0 14 C-0.07271741 11.64686445 -0.08370868 9.29166332 -0.0625 6.9375 C-0.05347656 5.64714844 -0.04445313 4.35679687 -0.03515625 3.02734375 C-0.02355469 2.02832031 -0.01195312 1.02929688 0 0 Z " fill="#5B87F5" transform="translate(457,616)"/>
<path d="M0 0 C0.91007813 0.00902344 1.82015625 0.01804687 2.7578125 0.02734375 C3.45648437 0.03894531 4.15515625 0.05054688 4.875 0.0625 C4.875 1.7125 4.875 3.3625 4.875 5.0625 C2.9878125 4.9696875 2.9878125 4.9696875 1.0625 4.875 C-1.51969981 4.89331347 -2.86951965 4.93088891 -5.1875 6.125 C-6.67738061 9.2040866 -5.79982518 11.81106958 -5.125 15.0625 C-0.67 16.0525 -0.67 16.0525 3.875 17.0625 C3.875 18.3825 3.875 19.7025 3.875 21.0625 C-5.11237084 21.84780425 -5.11237084 21.84780425 -9.1875 18.6875 C-12.22470072 14.5725829 -12.64109098 12.22340977 -12.125 7.0625 C-8.96056579 1.74908434 -6.05493243 -0.07762734 0 0 Z " fill="#6067C7" transform="translate(568.125,261.9375)"/>
<path d="M0 0 C2.375 1.125 2.375 1.125 4 3 C4.25 6.1875 4.25 6.1875 4 9 C1.03 9 -1.94 9 -5 9 C-5 9.66 -5 10.32 -5 11 C-2.36 11 0.28 11 3 11 C3 12.32 3 13.64 3 15 C-4.99180328 15.6147541 -4.99180328 15.6147541 -8.5625 13.4375 C-10.56331202 10.04481874 -10.55326548 7.87285839 -10 4 C-7.24846472 -0.12730291 -4.82246105 -0.70327557 0 0 Z " fill="#595EB6" transform="translate(620,268)"/>
<path d="M0 0 C1.65 0 3.3 0 5 0 C5 3.63 5 7.26 5 11 C6.65 11 8.3 11 10 11 C10 7.37 10 3.74 10 0 C11.65 0 13.3 0 15 0 C15 4.95 15 9.9 15 15 C12.66666667 15 10.33333333 15 8 15 C7.195625 15.061875 6.39125 15.12375 5.5625 15.1875 C3 15 3 15 1.3515625 13.875 C-0.59762715 11.17092188 -0.29359179 9.10134547 -0.1875 5.8125 C-0.16042969 4.72582031 -0.13335938 3.63914062 -0.10546875 2.51953125 C-0.07066406 1.68808594 -0.03585937 0.85664063 0 0 Z " fill="#605FBA" transform="translate(645,268)"/>
<path d="M0 0 C0.86625 0.020625 1.7325 0.04125 2.625 0.0625 C3.615 0.0625 4.605 0.0625 5.625 0.0625 C8.625 0.0625 11.625 0.0625 14.625 0.0625 C14.625 2.7025 14.625 5.3425 14.625 8.0625 C11.325 8.0625 8.025 8.0625 4.625 8.0625 C4.625 7.4025 4.625 6.7425 4.625 6.0625 C4.295 6.0625 3.965 6.0625 3.625 6.0625 C3.625 6.7225 3.625 7.3825 3.625 8.0625 C1.62545254 8.10504356 -0.37541636 8.10330783 -2.375 8.0625 C-3.375 7.0625 -3.375 7.0625 -3.5 4.0625 C-3.33438529 0.08774698 -3.33438529 0.08774698 0 0 Z " fill="#D2D7FB" transform="translate(544.375,620.9375)"/>
<path d="M0 0 C0 0.99 0 1.98 0 3 C-1.65 3 -3.3 3 -5 3 C-4.11710613 5.25929199 -4.11710613 5.25929199 -1.4375 6.3125 C1 8 1 8 1.5 10.5625 C1 13 1 13 -2 15 C-4.04296875 15.1953125 -4.04296875 15.1953125 -6.1875 15.125 C-8.0746875 15.063125 -8.0746875 15.063125 -10 15 C-10 13.68 -10 12.36 -10 11 C-7.69 11.33 -5.38 11.66 -3 12 C-3.8804896 9.75231753 -3.8804896 9.75231753 -6.5 8.6875 C-9 7 -9 7 -9.8125 4.3125 C-9.9053125 3.1678125 -9.9053125 3.1678125 -10 2 C-6.3558226 -0.4294516 -4.28758728 -0.16179575 0 0 Z " fill="#655BB6" transform="translate(703,268)"/>
<path d="M0 0 C3 0.25 3 0.25 5 2.25 C5.26991906 4.93839385 5.08737357 7.54141936 5 10.25 C1.7 10.25 -1.6 10.25 -5 10.25 C-5.1953125 4.1953125 -5.1953125 4.1953125 -5 2.25 C-3 0.25 -3 0.25 0 0 Z " fill="#7A74F7" transform="translate(630,183.75)"/>
<path d="M0 0 C2.00720923 0.28674418 4.0085944 0.61866701 6 1 C6.33 0.67 6.66 0.34 7 0 C8.66617115 -0.04063832 10.33388095 -0.042721 12 0 C11.67 0.66 11.34 1.32 11 2 C10.01 1.67 9.02 1.34 8 1 C8 1.66 8 2.32 8 3 C9.32 3.33 10.64 3.66 12 4 C11.67 5.32 11.34 6.64 11 8 C9.02090602 8.02686553 7.04171029 8.04633375 5.0625 8.0625 C3.96035156 8.07410156 2.85820313 8.08570313 1.72265625 8.09765625 C-1 8 -1 8 -2 7 C-2.1875 4.5625 -2.1875 4.5625 -2 2 C-1.34 1.34 -0.68 0.68 0 0 Z " fill="#494B53" transform="translate(769,307)"/>
<path d="M0 0 C2 0.33333333 4 0.66666667 6 1 C6.33 0.67 6.66 0.34 7 0 C8.66617115 -0.04063832 10.33388095 -0.042721 12 0 C11.67 0.66 11.34 1.32 11 2 C10.01 1.67 9.02 1.34 8 1 C8 1.66 8 2.32 8 3 C9.32 3.33 10.64 3.66 12 4 C11.67 5.32 11.34 6.64 11 8 C9.20866022 8.05391993 7.41686101 8.09275571 5.625 8.125 C4.62726562 8.14820313 3.62953125 8.17140625 2.6015625 8.1953125 C0 8 0 8 -2 6 C-1.44444444 1.44444444 -1.44444444 1.44444444 0 0 Z " fill="#494C54" transform="translate(530,307)"/>
<path d="M0 0 C3.33333333 0 6.66666667 0 10 0 C10.845625 -0.020625 11.69125 -0.04125 12.5625 -0.0625 C15 0 15 0 16 1 C16.125 3.5 16.125 3.5 16 6 C15 7 15 7 12.5625 7.0625 C11.2940625 7.0315625 11.2940625 7.0315625 10 7 C9.34 7 8.68 7 8 7 C7.01 7 6.02 7 5 7 C5 5.02 5 3.04 5 1 C4.01 1.495 4.01 1.495 3 2 C2.34444881 4.52733235 2.34444881 4.52733235 2 7 C1.34 7 0.68 7 0 7 C0 4.69 0 2.38 0 0 Z " fill="#86898F" transform="translate(463,403)"/>
<path d="M0 0 C2.39782638 0.11152681 4.39644512 0.44616892 6.6875 1.125 C6.6875 1.785 6.6875 2.445 6.6875 3.125 C8.0075 3.455 9.3275 3.785 10.6875 4.125 C10.3575 5.445 10.0275 6.765 9.6875 8.125 C7.35416667 8.125 5.02083333 8.125 2.6875 8.125 C1.841875 8.145625 0.99625 8.16625 0.125 8.1875 C-2.3125 8.125 -2.3125 8.125 -3.3125 7.125 C-3.4375 4.125 -3.4375 4.125 -3.3125 1.125 C-2.3125 0.125 -2.3125 0.125 0 0 Z " fill="#6D727B" transform="translate(642.3125,306.875)"/>
<path d="M0 0 C3.3 0 6.6 0 10 0 C10 1.32 10 2.64 10 4 C8.35 4.66 6.7 5.32 5 6 C4.67 8.97 4.34 11.94 4 15 C2.68 15 1.36 15 0 15 C0 10.05 0 5.1 0 0 Z " fill="#635FBC" transform="translate(664,268)"/>
<path d="M0 0 C0.66 0 1.32 0 2 0 C2 0.99 2 1.98 2 3 C3.65 3.33 5.3 3.66 7 4 C7.042721 5.66611905 7.04063832 7.33382885 7 9 C6 10 6 10 2.9375 10.0625 C1.968125 10.041875 0.99875 10.02125 0 10 C0 9.01 0 8.02 0 7 C-1.65 7.33 -3.3 7.66 -5 8 C-3.68 8.66 -2.36 9.32 -1 10 C-2.66611905 10.042721 -4.33382885 10.04063832 -6 10 C-7 9 -7 9 -7.0625 6.4375 C-7.041875 5.633125 -7.02125 4.82875 -7 4 C-5.34385343 3.61781233 -3.67542976 3.28604898 -2 3 C-1.67 3.33 -1.34 3.66 -1 4 C-0.67 2.68 -0.34 1.36 0 0 Z " fill="#5E6269" transform="translate(686,701)"/>
<path d="M0 0 C4.875 0.875 4.875 0.875 6 2 C6 1.34 6 0.68 6 0 C7.65 0 9.3 0 11 0 C11.87890625 6.15234375 11.87890625 6.15234375 12 8 C11 9 11 9 8.49609375 9.09765625 C6.98208984 9.08025391 6.98208984 9.08025391 5.4375 9.0625 C4.42558594 9.05347656 3.41367187 9.04445313 2.37109375 9.03515625 C1.58863281 9.02355469 0.80617188 9.01195312 0 9 C0.33 7.68 0.66 6.36 1 5 C1.66 5 2.32 5 3 5 C3 3.68 3 2.36 3 1 C2.01 1.33 1.02 1.66 0 2 C0 1.34 0 0.68 0 0 Z " fill="#345278" transform="translate(677,748)"/>
<path d="M0 0 C1.51400391 0.01740234 1.51400391 0.01740234 3.05859375 0.03515625 C4.07050781 0.04417969 5.08242188 0.05320312 6.125 0.0625 C7.29869141 0.07990234 7.29869141 0.07990234 8.49609375 0.09765625 C8.53863731 2.09720371 8.53690158 4.09807261 8.49609375 6.09765625 C6.83047976 7.76327024 4.8364667 7.2688157 2.55859375 7.28515625 C1.66269531 7.29933594 0.76679687 7.31351563 -0.15625 7.328125 C-2.50390625 7.09765625 -2.50390625 7.09765625 -4.50390625 5.09765625 C-3.75371603 0.14640078 -3.75371603 0.14640078 0 0 Z " fill="#4A4D52" transform="translate(625.50390625,703.90234375)"/>
<path d="M0 0 C0.33 0 0.66 0 1 0 C1 3.3 1 6.6 1 10 C-1.31 9.67 -3.62 9.34 -6 9 C-6 8.34 -6 7.68 -6 7 C-7.65 7 -9.3 7 -11 7 C-11 7.66 -11 8.32 -11 9 C-9.68 9.33 -8.36 9.66 -7 10 C-8.66611905 10.042721 -10.33382885 10.04063832 -12 10 C-13 9 -13 9 -13.0625 6.4375 C-13.041875 5.633125 -13.02125 4.82875 -13 4 C-8.59248108 3.02055135 -4.51540265 3 0 3 C0 2.01 0 1.02 0 0 Z " fill="#787E87" transform="translate(583,701)"/>
<path d="M0 0 C0 2.64 0 5.28 0 8 C-1.47906892 8.02689216 -2.95827483 8.04634621 -4.4375 8.0625 C-5.67306641 8.07990234 -5.67306641 8.07990234 -6.93359375 8.09765625 C-9 8 -9 8 -10 7 C-10.04080783 5.00041636 -10.04254356 2.99954746 -10 1 C-6.78548731 -0.60725635 -3.56387464 -0.05748185 0 0 Z " fill="#9DAFF8" transform="translate(512,621)"/>
<path d="M0 0 C0.66 0 1.32 0 2 0 C2 1.65 2 3.3 2 5 C2.66 5 3.32 5 4 5 C4 3.35 4 1.7 4 0 C4.99 0 5.98 0 7 0 C7.33 0.99 7.66 1.98 8 3 C8.33 2.67 8.66 2.34 9 2 C8.67 1.34 8.34 0.68 8 0 C9.66611905 -0.042721 11.33382885 -0.04063832 13 0 C14 1 14 1 14 7 C9.38 7 4.76 7 0 7 C0 4.69 0 2.38 0 0 Z " fill="#9C9FA5" transform="translate(448,403)"/>
<path d="M0 0 C0.94875 0.04125 1.8975 0.0825 2.875 0.125 C2.92895478 1.74963842 2.96777195 3.37478541 3 5 C3.02320313 5.90492188 3.04640625 6.80984375 3.0703125 7.7421875 C2.875 10.125 2.875 10.125 0.875 12.125 C-1.75 12.25 -1.75 12.25 -4.125 12.125 C-3.795 11.465 -3.465 10.805 -3.125 10.125 C-2.135 10.125 -1.145 10.125 -0.125 10.125 C0.205 9.465 0.535 8.805 0.875 8.125 C-0.775 7.795 -2.425 7.465 -4.125 7.125 C-4.75 4.75 -4.75 4.75 -5.125 2.125 C-3.125 0.125 -3.125 0.125 0 0 Z " fill="#818791" transform="translate(619.125,306.875)"/>
<path d="M0 0 C2.5 0.25 2.5 0.25 4.5 2.25 C4.75 4.75 4.75 4.75 4.5 7.25 C2.5 9.25 2.5 9.25 0 9.5 C-2.5 9.25 -2.5 9.25 -4.5 7.25 C-4.75 4.75 -4.75 4.75 -4.5 2.25 C-2.5 0.25 -2.5 0.25 0 0 Z " fill="#B9E6D7" transform="translate(622.5,345.75)"/>
<path d="M0 0 C2.33294775 -0.04241723 4.66702567 -0.04092937 7 0 C8 1 8 1 8.125 4 C8 7 8 7 7 8 C5.33382885 8.04063832 3.66611905 8.042721 2 8 C2 9.32 2 10.64 2 12 C1.34 12 0.68 12 0 12 C0 8.04 0 4.08 0 0 Z " fill="#797E89" transform="translate(717,307)"/>
<path d="M0 0 C3 0.125 3 0.125 4 1.125 C4.125 4.625 4.125 4.625 4 8.125 C3 9.125 3 9.125 0 9.25 C-3 9.125 -3 9.125 -4 8.125 C-4.125 4.625 -4.125 4.625 -4 1.125 C-3 0.125 -3 0.125 0 0 Z " fill="#BBE5D8" transform="translate(675,345.875)"/>
<path d="M0 0 C2.31 0 4.62 0 7 0 C6.01 0.33 5.02 0.66 4 1 C4 1.99 4 2.98 4 4 C4.99 4.33 5.98 4.66 7 5 C6.01 5 5.02 5 4 5 C4 5.99 4 6.98 4 8 C4.99 8.33 5.98 8.66 7 9 C4.69 9 2.38 9 0 9 C0 8.34 0 7.68 0 7 C-1.65 6.67 -3.3 6.34 -5 6 C-4.67 4.68 -4.34 3.36 -4 2 C-2.68 2 -1.36 2 0 2 C0 1.34 0 0.68 0 0 Z " fill="#2EB58A" transform="translate(603,346)"/>
<path d="M0 0 C0.66 0 1.32 0 2 0 C2 3.96 2 7.92 2 12 C-0.33294775 12.04241723 -2.66702567 12.04092937 -5 12 C-6 11 -6 11 -6.1875 8.5625 C-6 6 -6 6 -4 4 C-2.68 4 -1.36 4 0 4 C0 2.68 0 1.36 0 0 Z " fill="#7B808B" transform="translate(701,303)"/>
<path d="M0 0 C0.66 0 1.32 0 2 0 C2 3.96 2 7.92 2 12 C-0.33294775 12.04241723 -2.66702567 12.04092937 -5 12 C-6 11 -6 11 -6.1875 8.5625 C-6 6 -6 6 -4 4 C-2.68 4 -1.36 4 0 4 C0 2.68 0 1.36 0 0 Z " fill="#7B818B" transform="translate(665,303)"/>
<path d="M0 0 C0.66 0 1.32 0 2 0 C2 3.96 2 7.92 2 12 C-0.33294775 12.04241723 -2.66702567 12.04092937 -5 12 C-6 11 -6 11 -6.1875 8.5625 C-6 6 -6 6 -4 4 C-2.68 4 -1.36 4 0 4 C0 2.68 0 1.36 0 0 Z " fill="#7B818B" transform="translate(501,303)"/>
<path d="M0 0 C0.66 0 1.32 0 2 0 C3.06546953 3.1964086 3.07427838 5.65747276 3 9 C2.4225 8.814375 1.845 8.62875 1.25 8.4375 C-1.20692525 7.95976454 -2.64397534 8.24270636 -5 9 C-5 7.35 -5 5.7 -5 4 C-5.66 4 -6.32 4 -7 4 C-7 5.65 -7 7.3 -7 9 C-7.66 9 -8.32 9 -9 9 C-9 6.69 -9 4.38 -9 2 C-6.03 2 -3.06 2 0 2 C0 1.34 0 0.68 0 0 Z " fill="#9C9FA5" transform="translate(458,503)"/>
<path d="M0 0 C0.66 0 1.32 0 2 0 C2 3.96 2 7.92 2 12 C0.02 12 -1.96 12 -4 12 C-4.66 11.34 -5.32 10.68 -6 10 C-5.625 7.375 -5.625 7.375 -5 5 C-3.35 4.67 -1.7 4.34 0 4 C0 2.68 0 1.36 0 0 Z " fill="#7D828D" transform="translate(581,303)"/>
<path d="M0 0 C1.32 0 2.64 0 4 0 C3.67 0.66 3.34 1.32 3 2 C3.66 2 4.32 2 5 2 C5.66 1.34 6.32 0.68 7 0 C9.625 0.375 9.625 0.375 12 1 C12 1.99 12 2.98 12 4 C11.01 4.495 11.01 4.495 10 5 C10.33 5.66 10.66 6.32 11 7 C7.04 7 3.08 7 -1 7 C-1 5 -1 5 0 4 C0 2.68 0 1.36 0 0 Z " fill="#A7ABB0" transform="translate(475,505)"/>
<path d="M0 0 C2.05078125 0.03255208 4.1015625 0.06510417 6.15234375 0.09765625 C6.15234375 2.40765625 6.15234375 4.71765625 6.15234375 7.09765625 C0 7.1953125 0 7.1953125 -1.84765625 7.09765625 C-2.84765625 6.09765625 -2.84765625 6.09765625 -2.97265625 3.59765625 C-2.80017347 0.14800071 -2.80017347 0.14800071 0 0 Z " fill="#4E5156" transform="translate(603.84765625,703.90234375)"/>
<path d="M0 0 C2.33944736 0.28730055 4.6739143 0.61936779 7 1 C7.125 3.375 7.125 3.375 7 6 C5 8 5 8 2.5 8.25 C0 8 0 8 -2 6 C-1.44444444 1.44444444 -1.44444444 1.44444444 0 0 Z " fill="#E7E9FD" transform="translate(562,621)"/>
<path d="M0 0 C3.63 0 7.26 0 11 0 C11.33 1.65 11.66 3.3 12 5 C11.34 4.67 10.68 4.34 10 4 C10 3.01 10 2.02 10 1 C7.36 1.33 4.72 1.66 2 2 C2 5.3 2 8.6 2 12 C4.64 12.33 7.28 12.66 10 13 C10 12.01 10 11.02 10 10 C10.66 10 11.32 10 12 10 C11.67 11.65 11.34 13.3 11 15 C9.35425434 15.02688151 7.70838587 15.04634123 6.0625 15.0625 C5.14597656 15.07410156 4.22945313 15.08570313 3.28515625 15.09765625 C1 15 1 15 0 14 C-0.07271741 11.64686445 -0.08370868 9.29166332 -0.0625 6.9375 C-0.05347656 5.64714844 -0.04445313 4.35679687 -0.03515625 3.02734375 C-0.02355469 2.02832031 -0.01195312 1.02929688 0 0 Z " fill="#E3EAFD" transform="translate(457,616)"/>
<path d="M0 0 C0.66 0.33 1.32 0.66 2 1 C1.34 1.66 0.68 2.32 0 3 C0.99 3.66 1.98 4.32 3 5 C3.25 8.0625 3.25 8.0625 3 11 C2 12 2 12 -0.5 12.125 C-3 12 -3 12 -4 11 C-4.44926708 7.04644974 -4.30871428 5.44377677 -2 2.125 C-1.34 1.42375 -0.68 0.7225 0 0 Z " fill="#828892" transform="translate(557,303)"/>
<path d="M0 0 C1.81242052 -0.02687279 3.62495233 -0.04633715 5.4375 -0.0625 C6.44683594 -0.07410156 7.45617187 -0.08570313 8.49609375 -0.09765625 C11 0 11 0 12 1 C12.04092937 3.33297433 12.04241723 5.66705225 12 8 C11.34 8 10.68 8 10 8 C9.67 6.02 9.34 4.04 9 2 C8.67 2 8.34 2 8 2 C7.67 3.98 7.34 5.96 7 8 C6.34 8 5.68 8 5 8 C5 5.69 5 3.38 5 1 C4.01 1.495 4.01 1.495 3 2 C2.34227572 5.02934491 2.34227572 5.02934491 2 8 C1.34 8 0.68 8 0 8 C0 5.36 0 2.72 0 0 Z " fill="#7C818C" transform="translate(796,307)"/>
<path d="M0 0 C1.81242052 -0.02687279 3.62495233 -0.04633715 5.4375 -0.0625 C6.44683594 -0.07410156 7.45617187 -0.08570313 8.49609375 -0.09765625 C11 0 11 0 12 1 C12.04092937 3.33297433 12.04241723 5.66705225 12 8 C11.34 8 10.68 8 10 8 C9.67 6.02 9.34 4.04 9 2 C8.67 2 8.34 2 8 2 C7.67 3.98 7.34 5.96 7 8 C6.34 8 5.68 8 5 8 C5 5.69 5 3.38 5 1 C4.01 1.495 4.01 1.495 3 2 C2.34227572 5.02934491 2.34227572 5.02934491 2 8 C1.34 8 0.68 8 0 8 C0 5.36 0 2.72 0 0 Z " fill="#7C828C" transform="translate(469,307)"/>
<path d="M0 0 C1.99954746 -0.04254356 4.00041636 -0.04080783 6 0 C7 1 7 1 7.0625 3.5625 C7.041875 4.366875 7.02125 5.17125 7 6 C5.35 6.33 3.7 6.66 2 7 C2 8.32 2 9.64 2 11 C1.34 11 0.68 11 0 11 C0 7.37 0 3.74 0 0 Z " fill="#646870" transform="translate(753,304)"/>
<path d="M0 0 C0.9075 0.00257813 1.815 0.00515625 2.75 0.0078125 C4.11125 0.00394531 4.11125 0.00394531 5.5 0 C7.75 0.1328125 7.75 0.1328125 8.75 1.1328125 C8.79063832 2.79898365 8.792721 4.46669345 8.75 6.1328125 C7.76 4.8128125 6.77 3.4928125 5.75 2.1328125 C5.42 3.4528125 5.09 4.7728125 4.75 6.1328125 C2.44 6.1328125 0.13 6.1328125 -2.25 6.1328125 C-2.63218767 4.47666593 -2.96395102 2.80824226 -3.25 1.1328125 C-2.25 0.1328125 -2.25 0.1328125 0 0 Z " fill="#383B41" transform="translate(615.25,750.8671875)"/>
<path d="M0 0 C1.99954746 -0.04254356 4.00041636 -0.04080783 6 0 C7 1 7 1 7.0625 3.5625 C7.041875 4.366875 7.02125 5.17125 7 6 C5.35 6.33 3.7 6.66 2 7 C2 7.99 2 8.98 2 10 C1.34 10 0.68 10 0 10 C0 6.7 0 3.4 0 0 Z " fill="#5E6269" transform="translate(658,704)"/>
<path d="M0 0 C0.33 0 0.66 0 1 0 C1 3.96 1 7.92 1 12 C-0.65 12 -2.3 12 -4 12 C-4.66 11.34 -5.32 10.68 -6 10 C-5.625 7.375 -5.625 7.375 -5 5 C-3.35 4.67 -1.7 4.34 0 4 C0 2.68 0 1.36 0 0 Z " fill="#877B79" transform="translate(463,442)"/>
<path d="M0 0 C1.64574566 -0.02688151 3.29161413 -0.04634123 4.9375 -0.0625 C5.85402344 -0.07410156 6.77054687 -0.08570313 7.71484375 -0.09765625 C10 0 10 0 11 1 C11.04080783 2.99958364 11.04254356 5.00045254 11 7 C9.02 7 7.04 7 5 7 C5.33 5.68 5.66 4.36 6 3 C6.99 3 7.98 3 9 3 C9 2.34 9 1.68 9 1 C7.02 1.33 5.04 1.66 3 2 C2.67 3.65 2.34 5.3 2 7 C1.34 7 0.68 7 0 7 C0 4.69 0 2.38 0 0 Z " fill="#B0B3B9" transform="translate(462,505)"/>
<path d="M0 0 C2.5 0.125 2.5 0.125 3.5 1.125 C3.625 4.125 3.625 4.125 3.5 7.125 C2.5 8.125 2.5 8.125 0 8.25 C-2.5 8.125 -2.5 8.125 -3.5 7.125 C-3.625 4.125 -3.625 4.125 -3.5 1.125 C-2.5 0.125 -2.5 0.125 0 0 Z " fill="#8A909B" transform="translate(813.5,306.875)"/>
<path d="M0 0 C1.32 0 2.64 0 4 0 C5.74834267 2.622514 6.51529754 3.99484478 7 7 C6.67 7.66 6.34 8.32 6 9 C4.02 8.34 2.04 7.68 0 7 C0 7.66 0 8.32 0 9 C-0.66 9 -1.32 9 -2 9 C-1.34 6.03 -0.68 3.06 0 0 Z " fill="#A5E0CD" transform="translate(582,346)"/>
<path d="M0 0 C1.98 0 3.96 0 6 0 C6 0.66 6 1.32 6 2 C4.68 2 3.36 2 2 2 C2.680625 2.556875 3.36125 3.11375 4.0625 3.6875 C5.0215625 4.8321875 5.0215625 4.8321875 6 6 C5.75 8.75 5.75 8.75 5 11 C3.02 11 1.04 11 -1 11 C-1 10.01 -1 9.02 -1 8 C1.475 8.495 1.475 8.495 4 9 C4 8.34 4 7.68 4 7 C1.525 6.01 1.525 6.01 -1 5 C-0.67 3.35 -0.34 1.7 0 0 Z " fill="#E8EBFD" transform="translate(533,618)"/>
<path d="M0 0 C1.99954746 -0.04254356 4.00041636 -0.04080783 6 0 C7 1 7 1 7.0625 4.5625 C7.041875 5.696875 7.02125 6.83125 7 8 C4.69 8 2.38 8 0 8 C0.185625 7.236875 0.37125 6.47375 0.5625 5.6875 C1.22819173 2.91032625 1.22819173 2.91032625 0 0 Z " fill="#DBE1FC" transform="translate(514,621)"/>
<path d="M0 0 C2.97 0.495 2.97 0.495 6 1 C6 3.31 6 5.62 6 8 C4.02 8 2.04 8 0 8 C-0.98120464 4.94736336 -0.98120464 3.05263664 0 0 Z " fill="#60646D" transform="translate(741,307)"/>
<path d="M0 0 C0.33 0 0.66 0 1 0 C1 3.3 1 6.6 1 10 C-1.31 9.67 -3.62 9.34 -6 9 C-5.67 7.35 -5.34 5.7 -5 4 C-3.35 3.67 -1.7 3.34 0 3 C0 2.01 0 1.02 0 0 Z " fill="#828892" transform="translate(644,701)"/>
<path d="M0 0 C0.78375 0.04125 1.5675 0.0825 2.375 0.125 C2.375 0.785 2.375 1.445 2.375 2.125 C1.055 2.455 -0.265 2.785 -1.625 3.125 C-1.295 4.115 -0.965 5.105 -0.625 6.125 C-0.625 5.465 -0.625 4.805 -0.625 4.125 C0.695 4.125 2.015 4.125 3.375 4.125 C3.375 5.775 3.375 7.425 3.375 9.125 C0.5 9.25 0.5 9.25 -2.625 9.125 C-4.625 7.125 -4.625 7.125 -4.875 4.625 C-4.51649553 1.03995533 -3.59522993 0.17120143 0 0 Z " fill="#C6EADE" transform="translate(649.625,345.875)"/>
<path d="M0 0 C1.98 0 3.96 0 6 0 C5.979375 0.928125 5.95875 1.85625 5.9375 2.8125 C5.84230396 6.02286011 5.84230396 6.02286011 7 9 C6.01 8.67 5.02 8.34 4 8 C3.67 7.34 3.34 6.68 3 6 C2.67 6.99 2.34 7.98 2 9 C1.34 9 0.68 9 0 9 C0 6.03 0 3.06 0 0 Z " fill="#CAEBE0" transform="translate(663,346)"/>
<path d="M0 0 C2.31 0 4.62 0 7 0 C7.38218767 1.65614657 7.71395102 3.32457024 8 5 C7 6 7 6 3.4375 6.0625 C2.303125 6.041875 1.16875 6.02125 0 6 C0 4.02 0 2.04 0 0 Z " fill="#3A3E44" transform="translate(622,731)"/>
<path d="M0 0 C2.33294775 -0.04241723 4.66702567 -0.04092937 7 0 C8 1 8 1 8.0625 4.5625 C8.041875 5.696875 8.02125 6.83125 8 8 C7.34 8 6.68 8 6 8 C6 6.02 6 4.04 6 2 C5.01 2 4.02 2 3 2 C3 3.98 3 5.96 3 8 C2.01 8 1.02 8 0 8 C0 5.36 0 2.72 0 0 Z " fill="#E5E6FC" transform="translate(570,621)"/>
<path d="M0 0 C0.78375 0.04125 1.5675 0.0825 2.375 0.125 C3 2.5 3 2.5 3.375 5.125 C2.715 5.785 2.055 6.445 1.375 7.125 C-1.25 6.75 -1.25 6.75 -3.625 6.125 C-4.25 4.25 -4.25 4.25 -4.625 2.125 C-2.625 0.125 -2.625 0.125 0 0 Z " fill="#909399" transform="translate(444.625,504.875)"/>
<path d="M0 0 C0.66 0 1.32 0 2 0 C2 2.64 2 5.28 2 8 C3.32 8 4.64 8 6 8 C6 5.36 6 2.72 6 0 C6.66 0 7.32 0 8 0 C8.125 7.75 8.125 7.75 7 10 C5.00045254 10.04254356 2.99958364 10.04080783 1 10 C0 9 0 9 -0.09765625 6.93359375 C-0.08605469 6.10988281 -0.07445312 5.28617187 -0.0625 4.4375 C-0.05347656 3.61121094 -0.04445313 2.78492188 -0.03515625 1.93359375 C-0.02355469 1.29550781 -0.01195312 0.65742188 0 0 Z " fill="#B6BABF" transform="translate(432,400)"/>
<path d="M0 0 C2.5 0.125 2.5 0.125 3.5 1.125 C3.625 3.625 3.625 3.625 3.5 6.125 C2.5 7.125 2.5 7.125 0 7.25 C-2.5 7.125 -2.5 7.125 -3.5 6.125 C-3.625 3.625 -3.625 3.625 -3.5 1.125 C-2.5 0.125 -2.5 0.125 0 0 Z " fill="#1C253E" transform="translate(682.5,271.875)"/>
<path d="M0 0 C2.5 0.125 2.5 0.125 3.5 1.125 C3.625 3.625 3.625 3.625 3.5 6.125 C2.5 7.125 2.5 7.125 0 7.25 C-2.5 7.125 -2.5 7.125 -3.5 6.125 C-3.625 3.625 -3.625 3.625 -3.5 1.125 C-2.5 0.125 -2.5 0.125 0 0 Z " fill="#1C2640" transform="translate(582.5,271.875)"/>
<path d="M0 0 C0.5775 0.78375 1.155 1.5675 1.75 2.375 C3.82897637 4.80047244 5.09040333 5.85694417 8 7 C8 7.66 8 8.32 8 9 C5.69 8.67 3.38 8.34 1 8 C0.67 8.99 0.34 9.98 0 11 C-1.125 9.4375 -1.125 9.4375 -2 7 C-1.125 3.25 -1.125 3.25 0 0 Z " fill="#1F2640" transform="translate(692,271)"/>
<path d="M0 0 C0.33 0.66 0.66 1.32 1 2 C1.66 2.33 2.32 2.66 3 3 C2.34 3 1.68 3 1 3 C1 4.98 1 6.96 1 9 C1.66 9.33 2.32 9.66 3 10 C2.01 10 1.02 10 0 10 C0 7.69 0 5.38 0 3 C-0.61875 3.185625 -1.2375 3.37125 -1.875 3.5625 C-4 4 -4 4 -6 3 C-4.68 4.32 -3.36 5.64 -2 7 C-2.33 7.99 -2.66 8.98 -3 10 C-4.65 10 -6.3 10 -8 10 C-7.67 9.34 -7.34 8.68 -7 8 C-6.01 8.33 -5.02 8.66 -4 9 C-4 8.34 -4 7.68 -4 7 C-5.32 6.67 -6.64 6.34 -8 6 C-7.67 4.68 -7.34 3.36 -7 2 C-4.69 2 -2.38 2 0 2 C0 1.34 0 0.68 0 0 Z " fill="#838894" transform="translate(456,305)"/>
<path d="M0 0 C0.33 0 0.66 0 1 0 C1 3.3 1 6.6 1 10 C0.67 9.01 0.34 8.02 0 7 C-1.65 7.33 -3.3 7.66 -5 8 C-3.68 8.66 -2.36 9.32 -1 10 C-2.66611905 10.042721 -4.33382885 10.04063832 -6 10 C-7 9 -7 9 -7.0625 6.4375 C-7.041875 5.633125 -7.02125 4.82875 -7 4 C-5.34385343 3.61781233 -3.67542976 3.28604898 -2 3 C-1.67 3.33 -1.34 3.66 -1 4 C-0.67 2.68 -0.34 1.36 0 0 Z " fill="#6A6E76" transform="translate(686,701)"/>
<path d="M0 0 C0.66 0 1.32 0 2 0 C2 0.66 2 1.32 2 2 C4.64 2.33 7.28 2.66 10 3 C10 3.66 10 4.32 10 5 C7.36 5.33 4.72 5.66 2 6 C2 6.66 2 7.32 2 8 C0.68 7.34 -0.64 6.68 -2 6 C-2 2 -2 2 0 0 Z " fill="#CBD9FC" transform="translate(463,619)"/>
<path d="M0 0 C1.66611905 -0.042721 3.33382885 -0.04063832 5 0 C6 1 6 1 6.0625 4.5625 C6.041875 5.696875 6.02125 6.83125 6 8 C4.02 8 2.04 8 0 8 C-0.33 6.68 -0.66 5.36 -1 4 C0.65 3.67 2.3 3.34 4 3 C4 2.34 4 1.68 4 1 C2.68 1.33 1.36 1.66 0 2 C0 1.34 0 0.68 0 0 Z " fill="#6E737C" transform="translate(727,307)"/>
<path d="M0 0 C2.97 0 5.94 0 9 0 C9 0.66 9 1.32 9 2 C8.01 2 7.02 2 6 2 C6 2.99 6 3.98 6 5 C6.99 5 7.98 5 9 5 C9 5.66 9 6.32 9 7 C6.03 7 3.06 7 0 7 C0.99 6.67 1.98 6.34 3 6 C3 5.34 3 4.68 3 4 C2.34 3.67 1.68 3.34 1 3 C1.66 3 2.32 3 3 3 C3 2.34 3 1.68 3 1 C2.01 1.33 1.02 1.66 0 2 C0 1.34 0 0.68 0 0 Z " fill="#6A6F77" transform="translate(695,704)"/>
<path d="M0 0 C0.66 0 1.32 0 2 0 C2 2.97 2 5.94 2 9 C0.35 9 -1.3 9 -3 9 C-3.33 7.35 -3.66 5.7 -4 4 C-2.68 3.67 -1.36 3.34 0 3 C0 2.01 0 1.02 0 0 Z " fill="#3F6799" transform="translate(647,728)"/>
<path d="M0 0 C0 0.66 0 1.32 0 2 C-1.32 2.33 -2.64 2.66 -4 3 C-4.33 4.65 -4.66 6.3 -5 8 C-3.35 8 -1.7 8 0 8 C0 8.66 0 9.32 0 10 C-2.31 9.67 -4.62 9.34 -7 9 C-8.33157895 3.55263158 -8.33157895 3.55263158 -6.875 1.125 C-4.46277487 -0.32233508 -2.7648665 -0.22417836 0 0 Z " fill="#AAADB3" transform="translate(439,502)"/>
<path d="M0 0 C2.31 0 4.62 0 7 0 C7 2.64 7 5.28 7 8 C6.34 8 5.68 8 5 8 C5 6.02 5 4.04 5 2 C4.01 2 3.02 2 2 2 C2 3.98 2 5.96 2 8 C1.34 8 0.68 8 0 8 C0 5.36 0 2.72 0 0 Z " fill="#EDF0FD" transform="translate(489,621)"/>
<path d="M0 0 C0.66 0 1.32 0 2 0 C2 2.31 2 4.62 2 7 C2.99 7 3.98 7 5 7 C5 4.69 5 2.38 5 0 C5.66 0 6.32 0 7 0 C7.125 3.375 7.125 3.375 7 7 C6.34 7.66 5.68 8.32 5 9 C2.375 8.625 2.375 8.625 0 8 C0 5.36 0 2.72 0 0 Z " fill="#C9EBE0" transform="translate(655,346)"/>
<path d="M0 0 C1.65 0 3.3 0 5 0 C5 0.66 5 1.32 5 2 C4.01 2.495 4.01 2.495 3 3 C3.66 3.66 4.32 4.32 5 5 C4.625 7.125 4.625 7.125 4 9 C2.35 9 0.7 9 -1 9 C-1 8.34 -1 7.68 -1 7 C-0.01 6.67 0.98 6.34 2 6 C1.01 5.34 0.02 4.68 -1 4 C-0.67 2.68 -0.34 1.36 0 0 Z " fill="#B7E5D6" transform="translate(632,346)"/>
<path d="M0 0 C1.67542976 0.28604898 3.34385343 0.61781233 5 1 C5 2.65 5 4.3 5 6 C3.34385343 6.38218767 1.67542976 6.71395102 0 7 C-1 6 -1 6 -1.125 3.5 C-1 1 -1 1 0 0 Z " fill="#1B2841" transform="translate(632,272)"/>
<path d="M0 0 C0.33 0 0.66 0 1 0 C1 2.97 1 5.94 1 9 C-0.65 9 -2.3 9 -4 9 C-4.33 7.35 -4.66 5.7 -5 4 C-3.35 3.67 -1.7 3.34 0 3 C0 2.01 0 1.02 0 0 Z " fill="#3F689A" transform="translate(648,748)"/>
<path d="M0 0 C1.65 0 3.3 0 5 0 C5 0.66 5 1.32 5 2 C4.01 2.33 3.02 2.66 2 3 C2.99 3.66 3.98 4.32 5 5 C4.67 6.32 4.34 7.64 4 9 C2.35 9 0.7 9 -1 9 C-1 8.34 -1 7.68 -1 7 C-0.01 6.67 0.98 6.34 2 6 C1.01 5.34 0.02 4.68 -1 4 C-0.67 2.68 -0.34 1.36 0 0 Z " fill="#C7EBDF" transform="translate(612,346)"/>
<path d="M0 0 C2.625 0.375 2.625 0.375 5 1 C5 1.99 5 2.98 5 4 C3.35 4 1.7 4 0 4 C0.95865509 6.33075929 0.95865509 6.33075929 4 8 C2.33388095 8.042721 0.66617115 8.04063832 -1 8 C-2 7 -2 7 -2.1875 4.5625 C-2 2 -2 2 0 0 Z " fill="#747882" transform="translate(769,307)"/>
<path d="M0 0 C2.625 0.375 2.625 0.375 5 1 C5 1.99 5 2.98 5 4 C3.35 4 1.7 4 0 4 C0.95865509 6.33075929 0.95865509 6.33075929 4 8 C2.33388095 8.042721 0.66617115 8.04063832 -1 8 C-2 7 -2 7 -2.1875 4.5625 C-2 2 -2 2 0 0 Z " fill="#747982" transform="translate(608,307)"/>
<path d="M0 0 C1.67542976 0.28604898 3.34385343 0.61781233 5 1 C5 1.99 5 2.98 5 4 C3.35 4 1.7 4 0 4 C0.33 4.66 0.66 5.32 1 6 C2.32 6 3.64 6 5 6 C5 6.66 5 7.32 5 8 C2.625 8.125 2.625 8.125 0 8 C-0.66 7.34 -1.32 6.68 -2 6 C-1.44444444 1.44444444 -1.44444444 1.44444444 0 0 Z " fill="#747983" transform="translate(530,307)"/>
<path d="M0 0 C1.67542976 0.28604898 3.34385343 0.61781233 5 1 C5 1.99 5 2.98 5 4 C3.35 4 1.7 4 0 4 C0.33 4.66 0.66 5.32 1 6 C2.32 6 3.64 6 5 6 C5 6.66 5 7.32 5 8 C2.625 8.125 2.625 8.125 0 8 C-0.66 7.34 -1.32 6.68 -2 6 C-1.44444444 1.44444444 -1.44444444 1.44444444 0 0 Z " fill="#747983" transform="translate(462,307)"/>
<path d="M0 0 C2.00720923 0.28674418 4.0085944 0.61866701 6 1 C6 1.99 6 2.98 6 4 C4.02 4 2.04 4 0 4 C0.33 4.66 0.66 5.32 1 6 C2.65 6 4.3 6 6 6 C5.67 6.66 5.34 7.32 5 8 C3.33388095 8.042721 1.66617115 8.04063832 0 8 C-1 7 -1 7 -1.125 4 C-1 1 -1 1 0 0 Z " fill="#737982" transform="translate(586,307)"/>
<path d="M0 0 C2.31 0 4.62 0 7 0 C8.35439668 2.70879335 8.06501451 5.00933268 8 8 C7.34 8 6.68 8 6 8 C5.67 6.02 5.34 4.04 5 2 C4.34 2 3.68 2 3 2 C2.67 3.98 2.34 5.96 2 8 C1.34 8 0.68 8 0 8 C0 5.36 0 2.72 0 0 Z " fill="#767A85" transform="translate(562,307)"/>
<path d="M0 0 C6.15234375 -0.09765625 6.15234375 -0.09765625 8 0 C9 1 9 1 9.0625 3.5625 C9.041875 4.366875 9.02125 5.17125 9 6 C7.35 6 5.7 6 4 6 C4.33 4.68 4.66 3.36 5 2 C4.01 2 3.02 2 2 2 C1.34 3.32 0.68 4.64 0 6 C0 4.02 0 2.04 0 0 Z " fill="#4D525B" transform="translate(597,751)"/>
<path d="M0 0 C1.32 0 2.64 0 4 0 C4 2.64 4 5.28 4 8 C2.0625 7.6875 2.0625 7.6875 0 7 C-0.33 6.01 -0.66 5.02 -1 4 C-1.66 3.34 -2.32 2.68 -3 2 C-2.01 2 -1.02 2 0 2 C0 1.34 0 0.68 0 0 Z " fill="#B7BDF9" transform="translate(555,621)"/>
<path d="M0 0 C1.65 0.33 3.3 0.66 5 1 C5 3.31 5 5.62 5 8 C3.02 8 1.04 8 -1 8 C-1 6.68 -1 5.36 -1 4 C0.32 3.67 1.64 3.34 3 3 C3 2.34 3 1.68 3 1 C2.01 0.67 1.02 0.34 0 0 Z " fill="#554C61" transform="translate(450,446)"/>
<path d="M0 0 C2.00720923 0.28674418 4.0085944 0.61866701 6 1 C6 1.99 6 2.98 6 4 C4.02 4 2.04 4 0 4 C0.33 4.66 0.66 5.32 1 6 C2.32 6 3.64 6 5 6 C5 6.66 5 7.32 5 8 C3.33388095 8.042721 1.66617115 8.04063832 0 8 C-1 7 -1 7 -1.125 4 C-1 1 -1 1 0 0 Z " fill="#747983" transform="translate(670,307)"/>
<path d="M0 0 C2.00720923 0.28674418 4.0085944 0.61866701 6 1 C6 1.99 6 2.98 6 4 C4.02 4 2.04 4 0 4 C0.33 4.66 0.66 5.32 1 6 C2.32 6 3.64 6 5 6 C5 6.66 5 7.32 5 8 C3.33388095 8.042721 1.66617115 8.04063832 0 8 C-1 7 -1 7 -1.125 4 C-1 1 -1 1 0 0 Z " fill="#747A84" transform="translate(506,307)"/>
<path d="M0 0 C0.66 0 1.32 0 2 0 C2 2.31 2 4.62 2 7 C2.66 6.67 3.32 6.34 4 6 C4.65772428 2.97065509 4.65772428 2.97065509 5 0 C5.66 0 6.32 0 7 0 C7 2.64 7 5.28 7 8 C5.00045254 8.04254356 2.99958364 8.04080783 1 8 C0 7 0 7 -0.0625 3.4375 C-0.041875 2.303125 -0.02125 1.16875 0 0 Z " fill="#797F89" transform="translate(624,307)"/>
<path d="M0 0 C1.65 0 3.3 0 5 0 C5 2.66666667 5 5.33333333 5 8 C3.02 8 1.04 8 -1 8 C-1 7.34 -1 6.68 -1 6 C-0.34 5.67 0.32 5.34 1 5 C0.67 3.35 0.34 1.7 0 0 Z " fill="#E5E7FD" transform="translate(550,621)"/>
<path d="M0 0 C1.32 0 2.64 0 4 0 C4.33 0.99 4.66 1.98 5 3 C6.49985609 4.66710346 6.49985609 4.66710346 8 6 C6.68 6 5.36 6 4 6 C3.67 6.66 3.34 7.32 3 8 C2.01 7.67 1.02 7.34 0 7 C0 4.69 0 2.38 0 0 Z " fill="#24B184" transform="translate(607,347)"/>
<path d="M0 0 C0.99 0 1.98 0 3 0 C3 3.63 3 7.26 3 11 C2.01 11 1.02 11 0 11 C0 7.37 0 3.74 0 0 Z " fill="#D6DFFC" transform="translate(484,618)"/>
<path d="M0 0 C1.99954746 -0.04254356 4.00041636 -0.04080783 6 0 C7 1 7 1 7.0625 4.0625 C7.041875 5.031875 7.02125 6.00125 7 7 C6.34 7 5.68 7 5 7 C5 5.35 5 3.7 5 2 C4.01 2 3.02 2 2 2 C2 3.65 2 5.3 2 7 C1.34 7 0.68 7 0 7 C0 4.69 0 2.38 0 0 Z " fill="#B5B8BE" transform="translate(488,505)"/>
<path d="M0 0 C1.2065625 0.0309375 1.2065625 0.0309375 2.4375 0.0625 C2.4375 0.7225 2.4375 1.3825 2.4375 2.0625 C1.1175 2.3925 -0.2025 2.7225 -1.5625 3.0625 C-1.5625 4.0525 -1.5625 5.0425 -1.5625 6.0625 C-0.2425 6.3925 1.0775 6.7225 2.4375 7.0625 C2.4375 7.7225 2.4375 8.3825 2.4375 9.0625 C0.0625 9.1875 0.0625 9.1875 -2.5625 9.0625 C-3.2225 8.4025 -3.8825 7.7425 -4.5625 7.0625 C-3.85142216 0.09393713 -3.85142216 0.09393713 0 0 Z " fill="#CCEDE2" transform="translate(600.5625,345.9375)"/>
<path d="M0 0 C1.65 0.33 3.3 0.66 5 1 C4.67 2.65 4.34 4.3 4 6 C2.35 5.67 0.7 5.34 -1 5 C-0.67 3.35 -0.34 1.7 0 0 Z " fill="#3D4047" transform="translate(580,751)"/>
<path d="M0 0 C1.65 0.33 3.3 0.66 5 1 C5 2.98 5 4.96 5 7 C3.02 7 1.04 7 -1 7 C-0.67 5.68 -0.34 4.36 0 3 C0.99 3 1.98 3 3 3 C3 2.34 3 1.68 3 1 C2.01 1.33 1.02 1.66 0 2 C0 1.34 0 0.68 0 0 Z " fill="#B1B5BA" transform="translate(497,505)"/>
<path d="M0 0 C2.31 0 4.62 0 7 0 C7 2.31 7 4.62 7 7 C6.34 7 5.68 7 5 7 C5 5.02 5 3.04 5 1 C4.01 1.495 4.01 1.495 3 2 C2.34444881 4.52733235 2.34444881 4.52733235 2 7 C1.34 7 0.68 7 0 7 C0 4.69 0 2.38 0 0 Z " fill="#B4B8BD" transform="translate(463,403)"/>
<path d="M0 0 C0.66 0 1.32 0 2 0 C2 1.65 2 3.3 2 5 C2.66 5 3.32 5 4 5 C4 3.35 4 1.7 4 0 C4.66 0 5.32 0 6 0 C6 2.31 6 4.62 6 7 C4.02 7 2.04 7 0 7 C0 4.69 0 2.38 0 0 Z " fill="#B1B4BA" transform="translate(448,403)"/>
<path d="M0 0 C1.65 0.33 3.3 0.66 5 1 C5 2.98 5 4.96 5 7 C3.02 7 1.04 7 -1 7 C-0.67 5.68 -0.34 4.36 0 3 C0.99 3 1.98 3 3 3 C3 2.34 3 1.68 3 1 C2.01 0.67 1.02 0.34 0 0 Z " fill="#737880" transform="translate(612,704)"/>
<path d="M0 0 C1.99954746 -0.04254356 4.00041636 -0.04080783 6 0 C7 1 7 1 7.0625 4.0625 C7.041875 5.031875 7.02125 6.00125 7 7 C6.34 7 5.68 7 5 7 C5 5.02 5 3.04 5 1 C4.01 1.495 4.01 1.495 3 2 C2.34444881 4.52733235 2.34444881 4.52733235 2 7 C1.34 7 0.68 7 0 7 C0 4.69 0 2.38 0 0 Z " fill="#737881" transform="translate(593,704)"/>
<path d="M0 0 C0 0.66 0 1.32 0 2 C-1.65 2 -3.3 2 -5 2 C-5 3.32 -5 4.64 -5 6 C-3.68 6 -2.36 6 -1 6 C-1 6.66 -1 7.32 -1 8 C-2.66611905 8.042721 -4.33382885 8.04063832 -6 8 C-7 7 -7 7 -7.0625 3.9375 C-7.041875 2.968125 -7.02125 1.99875 -7 1 C-4.53721199 -0.231394 -2.7204945 -0.07159196 0 0 Z " fill="#E4E9FD" transform="translate(509,621)"/>
<path d="M0 0 C0.99 0 1.98 0 3 0 C3 2.31 3 4.62 3 7 C2.34 6.34 1.68 5.68 1 5 C-1.06874034 4.3574765 -1.06874034 4.3574765 -3 4 C-2.67 4.99 -2.34 5.98 -2 7 C-2.99 6.67 -3.98 6.34 -5 6 C-4.67 4.68 -4.34 3.36 -4 2 C-2.68 2 -1.36 2 0 2 C0 1.34 0 0.68 0 0 Z " fill="#32B48A" transform="translate(652,346)"/>
<path d="M0 0 C1.67542976 0.28604898 3.34385343 0.61781233 5 1 C5 1.99 5 2.98 5 4 C3.68 4.33 2.36 4.66 1 5 C1.99 5.66 2.98 6.32 4 7 C2.35 6.67 0.7 6.34 -1 6 C-1.042721 4.33388095 -1.04063832 2.66617115 -1 1 C-0.67 0.67 -0.34 0.34 0 0 Z " fill="#757A83" transform="translate(648,704)"/>
<path d="M0 0 C1.67542976 0.28604898 3.34385343 0.61781233 5 1 C5 1.99 5 2.98 5 4 C3.68 4.33 2.36 4.66 1 5 C1.99 5.66 2.98 6.32 4 7 C2.35 6.67 0.7 6.34 -1 6 C-1.042721 4.33388095 -1.04063832 2.66617115 -1 1 C-0.67 0.67 -0.34 0.34 0 0 Z " fill="#757A83" transform="translate(587,704)"/>
<path d="M0 0 C0 0.66 0 1.32 0 2 C-1.98 2.99 -1.98 2.99 -4 4 C-4 4.99 -4 5.98 -4 7 C-3.01 7.66 -2.02 8.32 -1 9 C-2.65 8.67 -4.3 8.34 -6 8 C-6.6875 5.6875 -6.6875 5.6875 -7 3 C-4.87164172 -0.24854684 -4.06968429 0 0 0 Z " fill="#42464E" transform="translate(578,748)"/>
<path d="M0 0 C1.98 0 3.96 0 6 0 C5.34 0.66 4.68 1.32 4 2 C3.60235737 3.98821313 3.26224651 5.98944339 3 8 C2.01 8 1.02 8 0 8 C0 5.36 0 2.72 0 0 Z " fill="#DCE1FC" transform="translate(522,621)"/>
<path d="M0 0 C2.0625 0.4375 2.0625 0.4375 4 1 C4 2.65 4 4.3 4 6 C3.38125 5.814375 2.7625 5.62875 2.125 5.4375 C-0.04160178 4.76313824 -0.04160178 4.76313824 -2 6 C-1.125 1.125 -1.125 1.125 0 0 Z " fill="#A2A8F7" transform="translate(562,621)"/>
<path d="M0 0 C1.65 0 3.3 0 5 0 C4.01 0.33 3.02 0.66 2 1 C2 1.99 2 2.98 2 4 C2.99 4.33 3.98 4.66 5 5 C4.01 5 3.02 5 2 5 C2 5.99 2 6.98 2 8 C2.99 8.33 3.98 8.66 5 9 C3.35 9 1.7 9 0 9 C0 6.03 0 3.06 0 0 Z " fill="#E7F6F1" transform="translate(639,346)"/>
<path d="M0 0 C1.65 0 3.3 0 5 0 C4.01 0.33 3.02 0.66 2 1 C2 1.99 2 2.98 2 4 C2.99 4.33 3.98 4.66 5 5 C4.01 5 3.02 5 2 5 C2 5.99 2 6.98 2 8 C2.99 8.33 3.98 8.66 5 9 C3.35 9 1.7 9 0 9 C0 6.03 0 3.06 0 0 Z " fill="#E7F6F1" transform="translate(605,346)"/>
<path d="M0 0 C1.32 0 2.64 0 4 0 C3.67 0.66 3.34 1.32 3 2 C3.33 2.33 3.66 2.66 4 3 C4 4.32 4 5.64 4 7 C2.35 7 0.7 7 -1 7 C-1 5 -1 5 0 4 C0 2.68 0 1.36 0 0 Z " fill="#AEB1B7" transform="translate(442,403)"/>
<path d="M0 0 C1.98 0.495 1.98 0.495 4 1 C3.67 2.65 3.34 4.3 3 6 C1.68 5.67 0.36 5.34 -1 5 C-0.67 3.35 -0.34 1.7 0 0 Z " fill="#1F1E23" transform="translate(812,308)"/>
<path d="M0 0 C1.98 0.495 1.98 0.495 4 1 C3.67 2.65 3.34 4.3 3 6 C1.68 5.67 0.36 5.34 -1 5 C-0.67 3.35 -0.34 1.7 0 0 Z " fill="#1E1F23" transform="translate(641,308)"/>
<path d="M0 0 C1.98 0.495 1.98 0.495 4 1 C3.67 2.65 3.34 4.3 3 6 C1.68 5.67 0.36 5.34 -1 5 C-0.67 3.35 -0.34 1.7 0 0 Z " fill="#1E1F24" transform="translate(555,308)"/>
<path d="M0 0 C1.98 0 3.96 0 6 0 C6 1.98 6 3.96 6 6 C4.68 6 3.36 6 2 6 C2 4.35 2 2.7 2 1 C1.34 0.67 0.68 0.34 0 0 Z " fill="#3F699B" transform="translate(656,751)"/>
<path d="M0 0 C1.98 0 3.96 0 6 0 C6 1.98 6 3.96 6 6 C4.68 6 3.36 6 2 6 C2 4.35 2 2.7 2 1 C1.34 0.67 0.68 0.34 0 0 Z " fill="#3F699B" transform="translate(656,731)"/>
<path d="M0 0 C2.0625 0.4375 2.0625 0.4375 4 1 C3.01 1.495 3.01 1.495 2 2 C1.74969023 4.41619823 1.74969023 4.41619823 2 7 C2.99 7.66 3.98 8.32 5 9 C3.33388095 9.042721 1.66617115 9.04063832 0 9 C-1 8 -1 8 -1.125 4.5 C-1 1 -1 1 0 0 Z " fill="#D3EEE5" transform="translate(672,346)"/>
<path d="M0 0 C1.98 0.495 1.98 0.495 4 1 C4 2.65 4 4.3 4 6 C2.35 6 0.7 6 -1 6 C-0.67 4.02 -0.34 2.04 0 0 Z " fill="#4A7CBA" transform="translate(638,751)"/>
<path d="M0 0 C1.98 0.495 1.98 0.495 4 1 C4 2.65 4 4.3 4 6 C2.35 6 0.7 6 -1 6 C-0.67 4.02 -0.34 2.04 0 0 Z " fill="#4D525C" transform="translate(626,751)"/>
<path d="M0 0 C1.98 0.495 1.98 0.495 4 1 C4 2.65 4 4.3 4 6 C2.35 6 0.7 6 -1 6 C-0.67 4.02 -0.34 2.04 0 0 Z " fill="#4A7CBA" transform="translate(638,731)"/>
<path d="M0 0 C1.98 0.495 1.98 0.495 4 1 C4 2.65 4 4.3 4 6 C2.35 6 0.7 6 -1 6 C-0.67 4.02 -0.34 2.04 0 0 Z " fill="#4D525C" transform="translate(612,731)"/>
<path d="M0 0 C1.32 0 2.64 0 4 0 C4 1.98 4 3.96 4 6 C2.68 6 1.36 6 0 6 C0 4.02 0 2.04 0 0 Z " fill="#C3EADE" transform="translate(582,346)"/>
<path d="M0 0 C0.66 0 1.32 0 2 0 C2 0.66 2 1.32 2 2 C2.66 2.33 3.32 2.66 4 3 C3.34 3 2.68 3 2 3 C2 4.98 2 6.96 2 9 C2.66 9.33 3.32 9.66 4 10 C2.68 9.67 1.36 9.34 0 9 C-1.125 2.25 -1.125 2.25 0 0 Z " fill="#808590" transform="translate(783,305)"/>
<path d="M0 0 C0.66 0 1.32 0 2 0 C2 0.66 2 1.32 2 2 C2.66 2.33 3.32 2.66 4 3 C3.34 3 2.68 3 2 3 C2 4.98 2 6.96 2 9 C2.66 9.33 3.32 9.66 4 10 C2.68 9.67 1.36 9.34 0 9 C-1.125 2.25 -1.125 2.25 0 0 Z " fill="#808691" transform="translate(544,305)"/>
<path d="M0 0 C0.99 0.33 1.98 0.66 3 1 C3 2.65 3 4.3 3 6 C1.68 6 0.36 6 -1 6 C-1.042721 4.33388095 -1.04063832 2.66617115 -1 1 C-0.67 0.67 -0.34 0.34 0 0 Z " fill="#E1DFFD" transform="translate(629,200)"/>
<path d="M0 0 C2.475 0.495 2.475 0.495 5 1 C5 2.32 5 3.64 5 5 C3.35 5 1.7 5 0 5 C0 3.35 0 1.7 0 0 Z " fill="#10AC79" transform="translate(591,348)"/>
<path d="M0 0 C2.475 0.495 2.475 0.495 5 1 C5 3.31 5 5.62 5 8 C3.35 8 1.7 8 0 8 C0.99 7.67 1.98 7.34 3 7 C3 6.01 3 5.02 3 4 C2.34 3.67 1.68 3.34 1 3 C1.66 3 2.32 3 3 3 C3 2.34 3 1.68 3 1 C2.01 0.67 1.02 0.34 0 0 Z " fill="#898F9B" transform="translate(789,307)"/>
<path d="M0 0 C2.475 0.495 2.475 0.495 5 1 C5 3.31 5 5.62 5 8 C3.35 8 1.7 8 0 8 C0.99 7.67 1.98 7.34 3 7 C3 6.01 3 5.02 3 4 C2.34 3.67 1.68 3.34 1 3 C1.66 3 2.32 3 3 3 C3 2.34 3 1.68 3 1 C2.01 0.67 1.02 0.34 0 0 Z " fill="#898F9B" transform="translate(706,307)"/>
<path d="M0 0 C2.475 0.495 2.475 0.495 5 1 C5 3.31 5 5.62 5 8 C3.35 8 1.7 8 0 8 C0.99 7.67 1.98 7.34 3 7 C3 6.01 3 5.02 3 4 C2.34 3.67 1.68 3.34 1 3 C1.66 3 2.32 3 3 3 C3 2.34 3 1.68 3 1 C2.01 0.67 1.02 0.34 0 0 Z " fill="#89909B" transform="translate(484,307)"/>
<path d="M0 0 C0.99 0 1.98 0 3 0 C3 1.98 3 3.96 3 6 C1.68 5.67 0.36 5.34 -1 5 C-0.67 3.35 -0.34 1.7 0 0 Z " fill="#1F1E23" transform="translate(720,308)"/>
<path d="M0 0 C0.99 0 1.98 0 3 0 C3 1.98 3 3.96 3 6 C1.68 5.67 0.36 5.34 -1 5 C-0.67 3.35 -0.34 1.7 0 0 Z " fill="#1D1E22" transform="translate(617,308)"/>
<path d="M0 0 C0.99 0 1.98 0 3 0 C3 1.98 3 3.96 3 6 C1.68 5.67 0.36 5.34 -1 5 C-0.67 3.35 -0.34 1.7 0 0 Z " fill="#1D1E22" transform="translate(578,308)"/>
<path d="M0 0 C2 2 2 2 2.125 4.625 C2.08375 5.40875 2.0425 6.1925 2 7 C1.01 7.495 1.01 7.495 0 8 C-0.66 7.67 -1.32 7.34 -2 7 C-2 5.02 -2 3.04 -2 1 C-1.34 0.67 -0.68 0.34 0 0 Z " fill="#2E2F36" transform="translate(459,307)"/>
<path d="M0 0 C1.32 0 2.64 0 4 0 C4 0.99 4 1.98 4 3 C3.01 3.33 2.02 3.66 1 4 C1.99 4.66 2.98 5.32 4 6 C2.35 5.67 0.7 5.34 -1 5 C-0.67 3.35 -0.34 1.7 0 0 Z " fill="#545964" transform="translate(613,751)"/>
<path d="M0 0 C0.66 0 1.32 0 2 0 C3.06546953 3.1964086 3.07427838 5.65747276 3 9 C2.01 9 1.02 9 0 9 C-1.125 2.25 -1.125 2.25 0 0 Z " fill="#B8BCC2" transform="translate(458,503)"/>
<path d="M0 0 C0 1.65 0 3.3 0 5 C-0.99 5.495 -0.99 5.495 -2 6 C-2 5.01 -2 4.02 -2 3 C-3.32 2.67 -4.64 2.34 -6 2 C-6 1.34 -6 0.68 -6 0 C-2.25 -1.125 -2.25 -1.125 0 0 Z " fill="#1E1E23" transform="translate(544,308)"/>
<path d="M0 0 C0.66 0 1.32 0 2 0 C2 0.66 2 1.32 2 2 C1.34 2 0.68 2 0 2 C0 3.32 0 4.64 0 6 C0.66 6 1.32 6 2 6 C2 6.66 2 7.32 2 8 C0.68 7.34 -0.64 6.68 -2 6 C-2 2 -2 2 0 0 Z " fill="#E2EAFD" transform="translate(463,619)"/>
<path d="M0 0 C1.4540625 0.0309375 1.4540625 0.0309375 2.9375 0.0625 C2.9375 0.7225 2.9375 1.3825 2.9375 2.0625 C1.9475 2.3925 0.9575 2.7225 -0.0625 3.0625 C-1.0819119 4.04270375 -2.08496356 5.04053008 -3.0625 6.0625 C-3.3925 6.0625 -3.7225 6.0625 -4.0625 6.0625 C-4.105221 4.39638095 -4.10313832 2.72867115 -4.0625 1.0625 C-3.0625 0.0625 -3.0625 0.0625 0 0 Z " fill="#313236" transform="translate(468.0625,505.9375)"/>
<path d="M0 0 C1.32 0 2.64 0 4 0 C4 1.65 4 3.3 4 5 C2.68 5 1.36 5 0 5 C0 3.35 0 1.7 0 0 Z " fill="#16A879" transform="translate(673,348)"/>
<path d="M0 0 C1.65 0 3.3 0 5 0 C4.34 0.66 3.68 1.32 3 2 C2.60235737 3.98821313 2.26224651 5.98944339 2 8 C1.34 8 0.68 8 0 8 C0 5.36 0 2.72 0 0 Z " fill="#767B85" transform="translate(633,307)"/>
<path d="M0 0 C1.98 0 3.96 0 6 0 C6 1.65 6 3.3 6 5 C5.01 5.495 5.01 5.495 4 6 C4 5.01 4 4.02 4 3 C2.68 2.67 1.36 2.34 0 2 C0 1.34 0 0.68 0 0 Z " fill="#1C1C20" transform="translate(777,308)"/>
<path d="M0 0 C0.99 0.33 1.98 0.66 3 1 C2.67 2.65 2.34 4.3 2 6 C1.01 5.67 0.02 5.34 -1 5 C-0.67 3.35 -0.34 1.7 0 0 Z " fill="#151519" transform="translate(698,308)"/>
<path d="M0 0 C0.99 0.33 1.98 0.66 3 1 C2.67 2.65 2.34 4.3 2 6 C1.01 5.67 0.02 5.34 -1 5 C-0.67 3.35 -0.34 1.7 0 0 Z " fill="#151519" transform="translate(662,308)"/>
<path d="M0 0 C0.99 0.33 1.98 0.66 3 1 C2.67 2.65 2.34 4.3 2 6 C1.01 5.67 0.02 5.34 -1 5 C-0.67 3.35 -0.34 1.7 0 0 Z " fill="#15151B" transform="translate(498,308)"/>
<path d="M0 0 C1.98 0 3.96 0 6 0 C6 1.98 6 3.96 6 6 C5.67 5.34 5.34 4.68 5 4 C3.35636866 3.27840576 1.68949614 2.60648579 0 2 C0 1.34 0 0.68 0 0 Z " fill="#1C1C22" transform="translate(450,308)"/>
<path d="M0 0 C1.35439668 2.70879335 1.06501451 5.00933268 1 8 C1.66 8.33 2.32 8.66 3 9 C-0.875 8.125 -0.875 8.125 -2 7 C-2.1875 4.5625 -2.1875 4.5625 -2 2 C-1.34 1.34 -0.68 0.68 0 0 Z " fill="#D7F1E8" transform="translate(620,346)"/>
<path d="M0 0 C1.32 0 2.64 0 4 0 C4 1.65 4 3.3 4 5 C2.68 4.67 1.36 4.34 0 4 C0 2.68 0 1.36 0 0 Z " fill="#17AC7C" transform="translate(620,348)"/>
<path d="M0 0 C1.98 0 3.96 0 6 0 C6 0.66 6 1.32 6 2 C4.68 2 3.36 2 2 2 C1.67 2.66 1.34 3.32 1 4 C0.01 4.495 0.01 4.495 -1 5 C-0.67 3.35 -0.34 1.7 0 0 Z " fill="#DCE1FC" transform="translate(533,618)"/>
<path d="M0 0 C0.99 0.33 1.98 0.66 3 1 C2.67 2.32 2.34 3.64 2 5 C0.35 5 -1.3 5 -3 5 C-3 4.34 -3 3.68 -3 3 C-2.01 2.67 -1.02 2.34 0 2 C0 1.34 0 0.68 0 0 Z " fill="#CAECE0" transform="translate(634,350)"/>
<path d="M0 0 C0.99 1.485 0.99 1.485 2 3 C4.56282742 3.72965366 4.56282742 3.72965366 7 4 C7 4.66 7 5.32 7 6 C5.00045254 6.04254356 2.99958364 6.04080783 1 6 C0 5 0 5 -0.0625 2.4375 C-0.041875 1.633125 -0.02125 0.82875 0 0 Z " fill="#C9ECE0" transform="translate(589,349)"/>
<path d="M0 0 C1.98 0.99 3.96 1.98 6 3 C6 3.66 6 4.32 6 5 C4.35 5.33 2.7 5.66 1 6 C0.67 4.02 0.34 2.04 0 0 Z " fill="#242429" transform="translate(817,309)"/>
<path d="M0 0 C0.33 0.66 0.66 1.32 1 2 C1.66 2.33 2.32 2.66 3 3 C3 4.65 3 6.3 3 8 C2.01 8 1.02 8 0 8 C-1.125 2.25 -1.125 2.25 0 0 Z " fill="#4C515A" transform="translate(593,749)"/>
<path d="M0 0 C0.33 0.66 0.66 1.32 1 2 C3.02463255 2.65213292 3.02463255 2.65213292 5 3 C4.01 3.33 3.02 3.66 2 4 C2.99 4.66 3.98 5.32 5 6 C3.35 5.67 1.7 5.34 0 5 C-0.5625 3.0625 -0.5625 3.0625 -1 1 C-0.67 0.67 -0.34 0.34 0 0 Z " fill="#878D97" transform="translate(622,705)"/>
<path d="M0 0 C1.32 0.33 2.64 0.66 4 1 C3.67 2.32 3.34 3.64 3 5 C2.01 4.67 1.02 4.34 0 4 C0 2.68 0 1.36 0 0 Z " fill="#222325" transform="translate(640,705)"/>
<path d="M0 0 C1.32 0.33 2.64 0.66 4 1 C3.67 2.32 3.34 3.64 3 5 C2.01 4.67 1.02 4.34 0 4 C0 2.68 0 1.36 0 0 Z " fill="#222325" transform="translate(579,705)"/>
<path d="M0 0 C1.32 0 2.64 0 4 0 C3.67 0.66 3.34 1.32 3 2 C3.33 2.33 3.66 2.66 4 3 C3.01 4.485 3.01 4.485 2 6 C2 5.34 2 4.68 2 4 C1.01 3.67 0.02 3.34 -1 3 C-0.67 2.01 -0.34 1.02 0 0 Z " fill="#ADB0B6" transform="translate(475,505)"/>
<path d="M0 0 C0 1.98 0 3.96 0 6 C-0.66 6 -1.32 6 -2 6 C-2.33 5.01 -2.66 4.02 -3 3 C-4.49985609 1.33289654 -4.49985609 1.33289654 -6 0 C-2.25 -1.125 -2.25 -1.125 0 0 Z " fill="#22B183" transform="translate(619,348)"/>
<path d="M0 0 C0.99 0.33 1.98 0.66 3 1 C3 1.99 3 2.98 3 4 C1.68 4.33 0.36 4.66 -1 5 C-1.33 3.68 -1.66 2.36 -2 1 C-1.34 0.67 -0.68 0.34 0 0 Z " fill="#4C4F56" transform="translate(706,310)"/>
<path d="M0 0 C0.99 0.33 1.98 0.66 3 1 C3 1.99 3 2.98 3 4 C1.68 4.33 0.36 4.66 -1 5 C-1.33 3.68 -1.66 2.36 -2 1 C-1.34 0.67 -0.68 0.34 0 0 Z " fill="#4C4F57" transform="translate(484,310)"/>
</svg>
