<?xml version="1.0" standalone="no"?>
<!DOCTYPE svg PUBLIC "-//W3C//DTD SVG 20010904//EN"
 "http://www.w3.org/TR/2001/REC-SVG-20010904/DTD/svg10.dtd">
<svg version="1.0" xmlns="http://www.w3.org/2000/svg"
 width="800.000000pt" height="800.000000pt" viewBox="0 0 800.000000 800.000000"
 preserveAspectRatio="xMidYMid meet">

<g transform="translate(0.000000,800.000000) scale(0.100000,-0.100000)"
fill="#000000" stroke="none">
<path d="M0 4000 l0 -4000 4000 0 4000 0 0 4000 0 4000 -4000 0 -4000 0 0
-4000z m3527 2318 c-7 -4 -8 -8 -3 -8 15 0 -16 -30 -32 -30 -13 0 -13 2 1 18
10 10 17 34 18 53 l1 34 13 -30 c10 -22 10 -32 2 -37z m-7 -87 c0 -5 -9 -11
-20 -14 -20 -5 -26 3 -13 16 9 10 33 8 33 -2z m40 -48 c0 -5 -4 -14 -9 -21 -7
-11 -9 -11 -14 1 -3 8 -3 18 0 21 9 8 23 7 23 -1z m-100 -23 c-6 -11 -15 -18
-20 -15 -13 8 0 35 16 35 12 0 12 -4 4 -20z m60 0 c0 -5 -9 -10 -21 -10 -11 0
-17 5 -14 10 3 6 13 10 21 10 8 0 14 -4 14 -10z m-30 -24 c0 -3 -4 -8 -10 -11
-5 -3 -10 -1 -10 4 0 6 5 11 10 11 6 0 10 -2 10 -4z m-63 -72 c-3 -3 -12 -4
-19 -1 -8 3 -5 6 6 6 11 1 17 -2 13 -5z m1637 -120 c29 -11 19 -35 -14 -32
-16 1 -30 6 -30 11 0 5 9 5 20 2 21 -7 28 10 8 18 -7 3 -10 6 -6 6 3 1 13 -2
22 -5z m232 -42 c-9 -8 -26 10 -26 26 1 15 2 15 15 -2 8 -11 13 -21 11 -24z
m-366 9 c0 -6 -4 -13 -10 -16 -5 -3 -10 1 -10 9 0 9 5 16 10 16 6 0 10 -4 10
-9z m30 -7 c0 -8 -5 -12 -10 -9 -6 4 -8 11 -5 16 9 14 15 11 15 -7z m249 -15
c-16 -10 -23 -4 -14 10 3 6 11 8 17 5 6 -4 5 -9 -3 -15z m-114 -9 c-3 -5 -13
-10 -21 -10 -8 0 -12 5 -9 10 3 6 13 10 21 10 8 0 12 -4 9 -10z m-277 -34 c3
-13 0 -17 -11 -13 -8 3 -23 -1 -34 -8 -10 -8 -26 -15 -36 -15 -13 0 -17 -5
-13 -17 7 -22 -8 -50 -18 -35 -3 6 -2 13 3 17 6 3 8 12 5 19 -3 8 0 17 5 21
16 9 3 25 -14 18 -8 -3 -15 -1 -15 5 0 15 28 23 34 9 3 -9 7 -8 14 2 7 9 12
10 16 2 11 -18 39 -13 32 5 -4 11 -1 14 11 12 10 -2 19 -12 21 -22z m229 2
c-3 -8 -6 -5 -6 6 -1 11 2 17 5 13 3 -3 4 -12 1 -19z m98 4 c3 -10 0 -12 -10
-8 -9 3 -20 -4 -29 -22 -17 -30 -21 -17 -7 21 10 26 37 32 46 9z m145 -2 c24
-24 25 -30 4 -30 -8 0 -12 -5 -9 -10 3 -6 -1 -13 -11 -17 -12 -4 -25 3 -42 22
-26 31 -14 49 14 21 21 -22 27 -20 14 3 -19 37 -2 43 30 11z m-287 -41 c-6 -6
-17 -8 -24 -3 -9 5 -8 9 7 14 23 9 31 3 17 -11z m57 11 c0 -5 -4 -10 -10 -10
-5 0 -10 5 -10 10 0 6 5 10 10 10 6 0 10 -4 10 -10z m100 -25 c0 -14 2 -25 4
-25 2 0 13 -3 23 -7 15 -6 16 -4 5 9 -14 17 -6 51 12 45 6 -2 10 -15 8 -29 -4
-35 22 -55 43 -34 21 21 28 20 51 -5 14 -15 15 -22 6 -28 -9 -5 -11 -18 -7
-37 l7 -29 -20 24 c-12 15 -24 21 -32 16 -10 -6 -9 -10 4 -17 9 -5 16 -16 16
-23 0 -8 7 -15 16 -15 8 0 12 -5 9 -11 -5 -7 -13 -4 -26 7 -15 14 -21 14 -34
4 -10 -8 -15 -9 -15 -1 0 6 5 11 10 11 7 0 7 6 2 18 -5 9 -7 22 -5 28 6 17
-56 12 -67 -6 -6 -10 -10 0 -12 30 -3 39 -6 45 -26 46 -17 1 -18 1 -3 -3 15
-3 19 -12 18 -41 -2 -43 -22 -71 -40 -53 -8 8 -7 11 6 11 22 0 22 19 0 27 -15
6 -15 7 3 14 15 6 14 8 -11 9 -16 1 -24 4 -17 7 6 2 12 15 12 29 0 19 5 23 23
21 16 -1 21 3 19 16 -2 9 2 17 8 17 5 0 10 -11 10 -25z m-327 -1 c-3 -8 -11
-13 -18 -10 -7 2 -17 0 -23 -6 -8 -8 -16 -7 -28 3 -16 13 -15 15 12 20 52 12
64 10 57 -7z m-186 -14 c7 -25 20 -26 25 -2 3 14 5 13 10 -5 5 -18 2 -23 -13
-23 -21 0 -61 35 -51 44 11 12 24 6 29 -14z m603 0 c0 -5 -4 -10 -10 -10 -5 0
-10 5 -10 10 0 6 5 10 10 10 6 0 10 -4 10 -10z m-760 -20 c0 -5 -2 -10 -4 -10
-3 0 -8 5 -11 10 -3 6 -1 10 4 10 6 0 11 -4 11 -10z m278 -8 c2 -7 -3 -12 -12
-12 -9 0 -16 7 -16 16 0 17 22 14 28 -4z m-238 -7 c0 -8 -4 -15 -10 -15 -5 0
-10 7 -10 15 0 8 5 15 10 15 6 0 10 -7 10 -15z m50 -35 c0 -12 -31 -42 -37
-36 -3 3 -3 16 1 30 4 17 11 23 21 20 8 -4 15 -10 15 -14z m30 -31 c0 -11 -4
-18 -10 -14 -5 3 -7 12 -3 20 7 21 13 19 13 -6z m284 -6 c-5 -5 -12 -12 -16
-18 -4 -6 -8 -2 -8 8 0 9 7 17 17 17 9 0 12 -3 7 -7z m146 -3 c0 -5 -2 -10 -4
-10 -3 0 -8 5 -11 10 -3 6 -1 10 4 10 6 0 11 -4 11 -10z m167 -15 c-4 -8 -1
-17 5 -21 7 -4 6 -9 -3 -15 -26 -16 -36 -10 -31 21 3 18 10 30 19 30 9 0 13
-6 10 -15z m66 -52 c-7 -2 -19 -2 -25 0 -7 3 -2 5 12 5 14 0 19 -2 13 -5z
m-218 -121 c-3 -3 -11 0 -18 7 -9 10 -8 11 6 5 10 -3 15 -9 12 -12z m-67 -45
c5 -24 -15 -21 -21 4 -3 13 -1 19 6 16 7 -2 13 -11 15 -20z m212 -11 c0 -3 -4
-8 -10 -11 -5 -3 -10 -1 -10 4 0 6 5 11 10 11 6 0 10 -2 10 -4z m-90 -40 c0
-2 -7 -6 -15 -10 -8 -3 -15 -1 -15 4 0 6 7 10 15 10 8 0 15 -2 15 -4z m-490
-46 c0 -5 -4 -10 -10 -10 -5 0 -10 5 -10 10 0 6 5 10 10 10 6 0 10 -4 10 -10z
m204 -26 c12 -22 27 -34 41 -34 5 0 4 5 -3 12 -16 16 -15 28 2 28 8 0 16 4 18
8 2 5 14 5 28 1 l25 -7 -27 -1 c-27 -1 -34 -15 -29 -58 3 -21 -18 -24 -44 -7
-14 9 -25 26 -25 38 0 12 -6 28 -12 35 -11 11 -10 13 1 9 8 -2 19 -13 25 -24z
m-94 -18 c0 -3 -4 -8 -10 -11 -5 -3 -10 -1 -10 4 0 6 5 11 10 11 6 0 10 -2 10
-4z m55 -6 c3 -5 -1 -10 -10 -10 -9 0 -13 5 -10 10 3 6 8 10 10 10 2 0 7 -4
10 -10z m-105 -14 c0 -3 -4 -8 -10 -11 -5 -3 -10 -1 -10 4 0 6 5 11 10 11 6 0
10 -2 10 -4z m252 -38 c-29 -11 -32 -9 -20 17 10 23 12 23 24 7 10 -14 10 -18
-4 -24z m-167 21 c11 -17 -1 -21 -15 -4 -8 9 -8 15 -2 15 6 0 14 -5 17 -11z
m315 1 c0 -5 -7 -10 -16 -10 -8 0 -12 5 -9 10 3 6 10 10 16 10 5 0 9 -4 9 -10z
m-400 -37 c0 -13 -47 -29 -57 -20 -3 4 -3 13 0 21 7 17 57 16 57 -1z m78 -2
c5 -14 -24 -15 -33 -1 -4 6 -10 8 -15 5 -5 -3 -11 -1 -15 5 -4 6 6 9 26 6 18
-2 35 -8 37 -15z m141 -15 c-3 -3 -16 -2 -29 1 -22 6 -22 7 -4 14 18 6 43 -5
33 -15z m-71 -14 c-24 -5 -23 -19 1 -32 14 -7 22 -7 27 2 4 7 3 8 -4 4 -7 -4
-12 -2 -12 3 0 15 43 14 58 -1 18 -18 15 -33 -4 -17 -14 11 -15 9 -9 -23 5
-27 3 -37 -9 -41 -11 -5 -16 0 -16 14 0 16 -5 19 -19 14 -14 -4 -21 0 -26 14
-4 15 -14 19 -45 17 -46 -1 -55 -16 -10 -16 17 0 30 -4 30 -8 0 -15 -22 -30
-36 -25 -8 3 -14 1 -14 -5 0 -6 12 -15 28 -20 22 -8 24 -11 10 -17 -21 -8 -77
32 -77 55 -1 13 0 13 9 0 7 -11 10 -8 9 15 0 17 -3 24 -6 18 -6 -17 -33 -16
-33 1 0 16 -69 30 -97 19 -16 -6 -16 -5 -5 10 8 9 11 21 7 27 -4 7 7 5 23 -4
34 -17 72 -21 72 -7 0 14 33 7 52 -11 20 -20 44 -23 53 -7 4 6 -3 13 -15 16
-22 6 -21 6 6 18 21 9 35 9 49 2 18 -10 18 -11 3 -15z m252 13 c0 -8 -7 -15
-15 -15 -9 0 -12 6 -9 15 4 8 10 15 15 15 5 0 9 -7 9 -15z m-530 -5 c0 -5 -4
-10 -10 -10 -5 0 -10 5 -10 10 0 6 5 10 10 10 6 0 10 -4 10 -10z m415 -9 c-4
-14 0 -21 15 -26 24 -8 26 -21 4 -29 -26 -10 -10 -18 20 -10 17 4 26 13 26 25
0 11 7 19 16 19 10 0 14 -6 11 -14 -3 -8 2 -16 15 -19 11 -3 17 -10 13 -16 -3
-6 -1 -11 5 -11 7 0 9 8 5 20 -5 16 -2 20 19 20 28 0 35 -17 11 -26 -11 -5
-12 -11 -4 -25 13 -25 39 -24 39 1 0 11 5 20 10 20 13 0 13 0 -5 -49 -14 -41
-10 -52 14 -28 10 10 11 9 6 -4 -9 -24 10 -32 30 -13 20 21 25 16 18 -18 -4
-21 -12 -28 -41 -33 -21 -4 -42 -11 -49 -17 -7 -5 -22 -7 -34 -3 -16 5 -18 9
-8 15 10 7 7 14 -13 35 -22 21 -27 23 -32 9 -5 -14 -7 -14 -22 0 -8 9 -19 16
-24 16 -5 0 -8 9 -7 20 1 20 13 27 19 12 2 -5 16 -12 31 -16 24 -6 28 -4 25
10 -2 14 -14 18 -59 18 -41 1 -55 4 -52 13 4 9 -3 11 -25 7 -21 -4 -31 -2 -35
10 -7 18 8 31 18 15 11 -17 33 35 28 65 -3 16 -1 26 7 26 7 0 9 -8 5 -19z m64
-7 c-6 -8 -15 -14 -20 -14 -14 0 -11 28 4 33 20 7 29 -4 16 -19z m-592 -6 c-3
-8 -6 -5 -6 6 -1 11 2 17 5 13 3 -3 4 -12 1 -19z m90 8 c4 -7 15 -16 23 -19 9
-3 3 -6 -12 -6 -20 -1 -28 4 -28 17 -1 16 -1 16 -14 0 -18 -24 -35 -23 -33 2
1 15 8 20 29 20 15 0 31 -6 35 -14z m-123 -11 c-4 -8 -12 -15 -20 -15 -8 0
-11 6 -8 15 4 8 12 15 20 15 8 0 11 -6 8 -15z m536 5 c0 -5 -4 -10 -10 -10 -5
0 -10 5 -10 10 0 6 5 10 10 10 6 0 10 -4 10 -10z m-613 -36 c1 -18 -2 -23 -9
-16 -6 6 -8 18 -5 26 9 22 12 20 14 -10z m138 -4 c4 -6 9 -8 13 -6 4 2 13 -3
21 -11 12 -14 12 -15 0 -11 -8 3 -21 2 -30 -3 -13 -6 -18 -3 -22 12 -4 15 -11
19 -24 15 -10 -3 -25 -1 -33 4 -11 7 -4 10 27 10 23 0 45 -5 48 -10z m196 1
c-7 -4 -9 -15 -5 -24 3 -10 1 -17 -5 -17 -6 0 -11 8 -12 18 0 13 -2 13 -9 -4
-10 -26 -26 -37 -40 -29 -8 5 -8 11 0 20 6 7 8 20 4 28 -5 13 2 16 36 15 23 0
37 -4 31 -7z m-89 -13 c-7 -7 -16 -7 -28 0 -14 8 -13 10 10 10 18 0 24 -4 18
-10z m-212 -2 c0 -3 -4 -8 -10 -11 -5 -3 -10 -1 -10 4 0 6 5 11 10 11 6 0 10
-2 10 -4z m450 -30 c0 -3 -4 -8 -10 -11 -5 -3 -10 -1 -10 4 0 6 5 11 10 11 6
0 10 -2 10 -4z m30 -17 c0 -5 -4 -9 -10 -9 -5 0 -10 7 -10 16 0 8 5 12 10 9 6
-3 10 -10 10 -16z m-170 -39 c0 -5 -2 -10 -4 -10 -3 0 -8 5 -11 10 -3 6 -1 10
4 10 6 0 11 -4 11 -10z m52 -2 c-9 -9 -15 -9 -24 0 -9 9 -7 12 12 12 19 0 21
-3 12 -12z m844 -358 c-8 -35 -20 -68 -25 -73 -6 -6 -11 -18 -11 -27 0 -9 -6
-25 -14 -36 -14 -18 -15 -17 -14 11 0 17 -1 35 -2 40 -6 27 2 46 24 55 18 7
27 19 32 47 7 41 14 57 20 50 3 -2 -2 -32 -10 -67z m-366 -109 c0 -10 9 -21
20 -24 20 -5 28 -27 10 -27 -5 0 -10 -4 -10 -10 0 -5 13 -7 30 -4 22 5 31 2
36 -10 3 -9 13 -16 22 -16 13 0 12 -3 -3 -20 -16 -18 -16 -20 -2 -20 10 0 17
-4 17 -10 0 -16 -30 -12 -36 5 -4 8 -13 15 -22 15 -13 0 -12 -3 3 -20 18 -20
17 -20 -14 -31 -22 -8 -29 -14 -20 -19 7 -5 18 -6 26 -3 7 3 13 0 13 -7 0 -8
-16 -11 -47 -9 -59 3 -86 -7 -78 -31 4 -12 -1 -19 -15 -23 -17 -4 -19 -1 -14
19 5 18 2 24 -10 24 -9 0 -16 -7 -16 -15 0 -8 -6 -15 -12 -15 -7 0 -24 -3 -37
-7 -22 -5 -22 -4 -11 16 8 16 18 21 31 18 10 -3 19 -1 19 4 0 5 -6 9 -12 10
-10 0 -10 2 0 6 6 2 12 17 12 32 0 15 15 47 32 72 18 24 25 38 17 32 -9 -7
-19 -10 -22 -6 -14 13 -6 23 18 23 16 0 25 6 25 15 0 8 9 15 20 15 29 0 25 14
-7 27 l-28 11 33 1 c25 1 32 -3 32 -18z m-920 -91 c0 -5 -4 -10 -10 -10 -5 0
-10 5 -10 10 0 6 5 10 10 10 6 0 10 -4 10 -10z m-20 -26 c0 -2 -9 -4 -21 -4
-11 0 -18 4 -14 10 5 8 35 3 35 -6z m35 -14 c-4 -14 -2 -20 8 -20 10 0 13 -8
10 -24 -4 -17 0 -25 16 -29 30 -8 26 -27 -6 -27 l-28 0 30 -20 c26 -17 27 -25
3 -21 -5 0 -8 -3 -8 -9 0 -5 6 -10 13 -10 21 0 50 -38 52 -66 0 -15 8 -32 17
-38 9 -7 23 -32 30 -55 7 -24 20 -46 28 -49 34 -13 58 -48 64 -94 5 -46 5 -47
-15 -35 -16 10 -21 9 -29 -2 -7 -12 -11 -12 -24 -2 -14 11 -16 11 -17 -5 0
-11 -3 -14 -6 -6 -3 9 -12 7 -33 -8 -22 -16 -31 -18 -37 -8 -15 25 -67 45 -95
37 -18 -5 -27 -3 -25 4 1 6 -7 11 -18 12 -14 0 -20 7 -19 22 0 12 -2 21 -5 21
-11 -3 -61 25 -61 34 0 6 36 12 61 10 3 -1 2 24 -2 55 -4 31 -3 66 2 80 6 17
6 30 -2 39 -8 10 -8 22 0 46 8 23 8 34 0 38 -7 5 -5 9 5 13 9 4 16 13 16 22 0
8 5 15 10 15 6 0 10 11 10 25 0 14 -5 25 -11 25 -5 0 -8 4 -4 10 3 5 12 7 20
4 8 -3 20 4 27 15 16 27 31 27 23 1z m1055 16 c0 -3 -4 -8 -10 -11 -5 -3 -10
-1 -10 4 0 6 5 11 10 11 6 0 10 -2 10 -4z m173 -31 c-7 -21 -13 -19 -13 6 0
11 4 18 10 14 5 -3 7 -12 3 -20z m-213 -47 c0 -6 -6 -5 -15 2 -8 7 -15 14 -15
16 0 2 7 1 15 -2 8 -4 15 -11 15 -16z m-655 -38 c3 -5 1 -10 -4 -10 -6 0 -11
5 -11 10 0 6 2 10 4 10 3 0 8 -4 11 -10z m355 -40 c0 -5 -7 -10 -16 -10 -8 0
-12 5 -9 10 3 6 10 10 16 10 5 0 9 -4 9 -10z m86 -2 c5 -8 2 -9 -9 -5 -10 4
-17 1 -17 -5 0 -6 -3 -9 -6 -5 -7 7 4 27 16 27 5 0 12 -5 16 -12z m-390 -55
c-7 -7 -26 7 -26 19 0 6 6 6 15 -2 9 -7 13 -15 11 -17z m57 -16 c4 -10 -5 -14
-29 -15 -41 -2 -46 15 -6 21 15 2 28 5 28 6 1 0 4 -5 7 -12z m64 -33 c13 -4
20 -11 16 -20 -7 -18 -33 -18 -33 0 0 8 -12 17 -27 19 -27 4 -27 4 -3 5 14 1
35 -1 47 -4z m-47 -24 c0 -5 -4 -10 -10 -10 -5 0 -10 5 -10 10 0 6 5 10 10 10
6 0 10 -4 10 -10z m40 -28 c0 -5 -7 -9 -15 -9 -8 0 -15 4 -15 9 0 4 7 8 15 8
8 0 15 -4 15 -8z m41 -25 c-8 -8 -11 -7 -11 4 0 20 13 34 18 19 3 -7 -1 -17
-7 -23z m170 17 c12 -14 11 -16 -5 -13 -11 2 -21 10 -24 17 -5 17 13 15 29 -4z
m49 -4 c0 -5 -2 -10 -4 -10 -3 0 -8 5 -11 10 -3 6 -1 10 4 10 6 0 11 -4 11
-10z m37 4 c-3 -3 -12 -4 -19 -1 -8 3 -5 6 6 6 11 1 17 -2 13 -5z m-209 -33
c3 -8 -1 -12 -9 -9 -7 2 -15 10 -17 17 -3 8 1 12 9 9 7 -2 15 -10 17 -17z m32
9 c0 -5 -4 -10 -10 -10 -5 0 -10 5 -10 10 0 6 5 10 10 10 6 0 10 -4 10 -10z
m53 3 c-7 -2 -19 -2 -25 0 -7 3 -2 5 12 5 14 0 19 -2 13 -5z m-803 -43 c0 -5
-2 -10 -4 -10 -3 0 -8 5 -11 10 -3 6 -1 10 4 10 6 0 11 -4 11 -10z m404 -247
c4 -9 0 -23 -9 -32 -13 -14 -15 -12 -15 17 0 34 14 43 24 15z m-34 -62 c0 -14
2 -14 10 -1 9 13 12 13 24 -3 8 -10 17 -14 20 -8 3 5 0 12 -6 14 -7 3 -3 6 9
6 28 1 53 -9 53 -21 0 -5 -4 -6 -10 -3 -5 3 -10 1 -10 -4 0 -6 5 -11 10 -11 6
0 10 -7 10 -15 0 -8 -4 -15 -10 -15 -5 0 -10 -11 -10 -25 0 -30 -11 -32 -28
-4 -12 18 -11 21 7 26 21 5 26 14 14 26 -13 13 -43 -25 -37 -47 5 -20 1 -22
-50 -24 -31 -1 -56 1 -56 5 0 5 -3 18 -6 31 -5 18 -3 21 11 15 16 -5 17 -2 12
25 -4 18 -4 38 -1 46 7 19 44 8 44 -13z m-20 -161 c0 -5 -4 -10 -10 -10 -5 0
-10 5 -10 10 0 6 5 10 10 10 6 0 10 -4 10 -10z"/>
<path d="M5180 5730 c0 -5 7 -10 16 -10 8 0 12 5 9 10 -3 6 -10 10 -16 10 -5
0 -9 -4 -9 -10z"/>
<path d="M5086 5093 c-8 -9 14 -33 30 -33 7 0 11 6 8 14 -6 16 -29 28 -38 19z"/>
<path d="M5225 4480 c3 -5 13 -10 21 -10 8 0 14 5 14 10 0 6 -9 10 -21 10 -11
0 -17 -4 -14 -10z"/>
<path d="M5104 4415 c-15 -22 -15 -26 0 -40 15 -15 16 -14 16 14 0 17 5 31 10
31 6 0 10 5 10 10 0 18 -19 10 -36 -15z"/>
<path d="M5160 4395 c0 -8 7 -15 15 -15 8 0 15 4 15 9 0 5 -7 11 -15 15 -9 3
-15 0 -15 -9z"/>
<path d="M4258 4383 c7 -3 16 -2 19 1 4 3 -2 6 -13 5 -11 0 -14 -3 -6 -6z"/>
<path d="M4337 4245 c-5 -11 0 -15 16 -15 12 0 18 4 12 8 -5 4 -13 11 -16 15
-4 4 -9 1 -12 -8z"/>
<path d="M4206 4155 c4 -8 10 -12 15 -9 11 6 2 24 -11 24 -5 0 -7 -7 -4 -15z"/>
<path d="M4215 3990 c-3 -5 -1 -10 4 -10 6 0 11 5 11 10 0 6 -2 10 -4 10 -3 0
-8 -4 -11 -10z"/>
</g>
</svg>
